<svg id="svg4306" width="22" height="22" enable-background="new" version="1.1" xmlns="http://www.w3.org/2000/svg">
 <g id="active-center" transform="matrix(1,0,0,-1,0,22)">
  <rect id="rect4266" width="22" height="22" opacity=".001"/>
  <path id="path4167" transform="matrix(.86603 0 0 .6 .47885 4.5829)" d="m12.149 4.0286 5.7735 10h-11.547l2.8868-5z" fill="#e4e6e8" fill-rule="evenodd"/>
 </g>
 <g id="hover-center" transform="matrix(1,0,0,-1,0,22)">
  <rect id="rect4208" x="23" width="22" height="22" opacity=".001"/>
  <circle id="circle4212" cx="34" cy="11" r="11" fill="#fafafa" opacity=".08"/>
  <path id="path4171" d="m34 7 5 6h-10l2.5-3z" fill="#e4e6e8" fill-rule="evenodd"/>
 </g>
 <g id="pressed-center" transform="matrix(1,0,0,-1,0,22)">
  <rect id="rect4164" x="46" width="22" height="22" opacity=".001"/>
  <circle id="path4202" cx="57" cy="11" r="11" fill="#fafafa" opacity=".19"/>
  <path id="path4173" d="m57 7 5 6h-10l2.5-3z" fill="#e4e6e8" fill-rule="evenodd"/>
 </g>
 <g id="inactive-center" transform="matrix(1,0,0,-1,0,22)">
  <rect id="rect4179" x="69" width="22" height="22" opacity=".001"/>
  <path id="path4181" transform="matrix(.86603 0 0 .6 69.479 4.5829)" d="m12.149 4.0286 5.7735 10h-11.547l2.8868-5z" fill="#e4e6e8" fill-rule="evenodd" opacity=".3"/>
 </g>
 <g id="deactivated-center" transform="matrix(1,0,0,-1,0,22)">
  <rect id="rect4183" x="92" width="22" height="22" opacity=".001"/>
  <path id="path4185" transform="matrix(.86603 0 0 .6 92.479 4.5829)" d="m12.149 4.0286 5.7735 10h-11.547l2.8868-5z" fill="#e4e6e8" fill-rule="evenodd" opacity=".3"/>
 </g>
</svg>
