<?xml version="1.0" encoding="UTF-8" standalone="no"?>
<svg id="svg4306" width="114" height="22" enable-background="new" version="1.1" sodipodi:docname="keepbelow.svg" inkscape:version="1.2.2 (b0a8486541, 2022-12-01)" xmlns:inkscape="http://www.inkscape.org/namespaces/inkscape" xmlns:sodipodi="http://sodipodi.sourceforge.net/DTD/sodipodi-0.dtd" xmlns="http://www.w3.org/2000/svg" xmlns:svg="http://www.w3.org/2000/svg">
 <defs id="defs22"/>
 <sodipodi:namedview id="namedview20" pagecolor="#ffffff" bordercolor="#000000" borderopacity="0.25" inkscape:showpageshadow="2" inkscape:pageopacity="0.0" inkscape:pagecheckerboard="0" inkscape:deskcolor="#d1d1d1" showgrid="false" inkscape:zoom="39.863636" inkscape:cx="6.7103763" inkscape:cy="11.025086" inkscape:window-width="1920" inkscape:window-height="1020" inkscape:window-x="0" inkscape:window-y="0" inkscape:window-maximized="1" inkscape:current-layer="svg4306"/>
 <g id="active-center" transform="matrix(1,0,0,-1,0,22)">
  <rect id="rect4266" width="22" height="22" opacity="0.00499998" x="0" y="0"/>
  <path id="path4167" transform="matrix(0.86603,0,0,0.6,0.47885,4.5829)" d="m 12.149,4.0286 5.7735,10 H 6.3755 l 2.8868,-5 z" fill-rule="evenodd" fill="#e3e3ff"/>
 </g>
 <g id="hover-center" transform="matrix(1,0,0,-1,0,22)">
  <rect id="rect4208" x="23" width="22" height="22" opacity="0.00499998" y="0"/>
  <circle id="circle4212" cx="34" cy="11" r="11" fill="#e3e3ff" opacity="0.08"/>
  <path id="path4171" d="m 34,7 5,6 H 29 l 2.5,-3 z" fill-rule="evenodd" fill="#e3e3ff"/>
 </g>
 <g id="pressed-center" transform="matrix(1,0,0,-1,0,22)">
  <rect id="rect4164" x="46" width="22" height="22" opacity="0.00499998" y="0"/>
  <circle id="path4202" cx="57" cy="11" r="11" fill="#e3e3ff" opacity="0.19"/>
  <path id="path4173" d="m 57,7 5,6 H 52 l 2.5,-3 z" fill-rule="evenodd" fill="#e3e3ff"/>
 </g>
 <g id="inactive-center" transform="matrix(1,0,0,-1,0,22)">
  <rect id="rect4179" x="69" width="22" height="22" opacity="0.00499998" y="0"/>
  <path id="path4181" transform="matrix(0.86603,0,0,0.6,69.479,4.5829)" d="m 12.149,4.0286 5.7735,10 H 6.3755 l 2.8868,-5 z" fill="#e3e3ff" fill-rule="evenodd" opacity="0.3"/>
 </g>
 <g id="deactivated-center" transform="matrix(1,0,0,-1,0,22)">
  <rect id="rect4183" x="92" width="22" height="22" opacity="0.00499998" y="0"/>
  <path id="path4185" transform="matrix(0.86603,0,0,0.6,92.479,4.5829)" d="m 12.149,4.0286 5.7735,10 H 6.3755 l 2.8868,-5 z" fill="#e3e3ff" fill-rule="evenodd" opacity="0.3"/>
 </g>
</svg>
