<svg id="svg83" width="200" height="150" version="1.1" viewBox="0 0 200 150" xmlns="http://www.w3.org/2000/svg" xmlns:cc="http://creativecommons.org/ns#" xmlns:dc="http://purl.org/dc/elements/1.1/" xmlns:rdf="http://www.w3.org/1999/02/22-rdf-syntax-ns#" xmlns:xlink="http://www.w3.org/1999/xlink">
 <metadata id="metadata96">
  <rdf:RDF>
   <cc:Work rdf:about="">
    <dc:format>image/svg+xml</dc:format>
    <dc:type rdf:resource="http://purl.org/dc/dcmitype/StillImage"/>
    <dc:title/>
   </cc:Work>
  </rdf:RDF>
 </metadata>
 <defs id="defs28">
  <linearGradient id="linearGradient948">
   <stop id="stop944" stop-opacity=".65" offset="0"/>
   <stop id="stop946" stop-opacity="0" offset="1"/>
  </linearGradient>
  <linearGradient id="linearGradient1951" x1="83.593" x2="83.593" y1="-970.4" y2="-955.4" gradientTransform="matrix(.71429 0 0 1 -317.71 1251.4)" gradientUnits="userSpaceOnUse" xlink:href="#linearGradient948"/>
  <linearGradient id="linearGradient913" x1="83.593" x2="83.593" y1="-970.4" y2="-952.4" gradientTransform="matrix(.71429 0 0 1 -317.71 1250.4)" gradientUnits="userSpaceOnUse" xlink:href="#linearGradient948"/>
  <linearGradient id="linearGradient998" x1="83.593" x2="83.593" y1="-970.4" y2="-956.4" gradientTransform="matrix(.71429 0 0 1 -317.71 1250.4)" gradientUnits="userSpaceOnUse" xlink:href="#linearGradient948"/>
  <linearGradient id="linearGradient1000" x1="83.593" x2="83.593" y1="-970.4" y2="-958.4" gradientTransform="matrix(.71429 0 0 1 -317.71 1251.4)" gradientUnits="userSpaceOnUse" xlink:href="#linearGradient948"/>
  <radialGradient id="radialGradient1902" cx="984" cy="905.36" r="8.5" gradientTransform="matrix(7.8051e-6 -1.6438 1.447 6.8706e-6 -1275.1 1787.5)" gradientUnits="userSpaceOnUse" xlink:href="#linearGradient948"/>
  <radialGradient id="radialGradient1904" cx="984" cy="905.36" r="8.5" gradientTransform="matrix(0 -1.4085 1.447 0 -1275.1 1556)" gradientUnits="userSpaceOnUse" xlink:href="#linearGradient948"/>
  <linearGradient id="linearGradient1906" x1="83.593" x2="83.593" y1="-970.4" y2="-958.07" gradientTransform="matrix(.71429 0 0 .94444 -317.71 1197.5)" gradientUnits="userSpaceOnUse" xlink:href="#linearGradient948"/>
  <radialGradient id="radialGradient1908" cx="984" cy="905.36" r="8.5" gradientTransform="matrix(.0035696 -2.1144 1.9964 .0033704 -1776 2247.5)" gradientUnits="userSpaceOnUse" xlink:href="#linearGradient948"/>
  <radialGradient id="radialGradient1910" cx="984" cy="905.36" r="8.5" gradientTransform="matrix(.0035668 -1.7615 1.9964 .0040425 -1776 1899.6)" gradientUnits="userSpaceOnUse" xlink:href="#linearGradient948"/>
  <linearGradient id="linearGradient1912" x1="83.593" x2="83.593" y1="-970.4" y2="-953.4" gradientTransform="matrix(.71429 0 0 .94444 -317.71 1197.5)" gradientUnits="userSpaceOnUse" xlink:href="#linearGradient948"/>
 </defs>
 <rect id="decoration-inactive-center" x="132" y="45" width="50" height="50" fill="#23232F"/>
 <rect id="decoration-center" x="30" y="45" width="50" height="50" fill="#23232F"/>
 <g id="decoration-left" transform="matrix(1.0588 0 0 1 12 28)">
  <g id="shadow-left-3-9" transform="matrix(-1,0,0,1,298,-240)">
   <rect id="rect31-1" transform="rotate(-90)" x="-307" y="288.56" width="50" height="9.4444" fill="url(#linearGradient1912)" opacity=".5" stroke-width=".97183"/>
   <rect id="rect33-2" transform="translate(3,2)" x="278" y="257" width="7" height="1" fill-opacity="0"/>
  </g>
  <path id="path71-7" d="m9.4444 17v50h7.5556v-50z" color="#383c4a" fill="#23232F" stroke-width="1.0389"/>
 </g>
 <g id="decoration-bottom" transform="translate(13,29)">
  <g id="shadow-bottom-0" transform="rotate(90,269,55)">
   <rect id="rect39-6" transform="rotate(-90)" x="-307" y="288" width="50" height="10" fill="url(#linearGradient913)" opacity=".5"/>
   <rect id="rect41-2" transform="translate(3,2)" x="278" y="257" width="7" height="1" fill-opacity="0"/>
  </g>
  <path id="path95-6" d="m17 66v8h50v-8z" color="#383c4a" fill="#23232F" stroke-width="1.069"/>
 </g>
 <g id="decoration-top" transform="translate(13,28)">
  <g id="shadow-top-6-7" transform="matrix(0,-1,-1,0,324,298)">
   <rect id="rect51-9" transform="rotate(-90)" x="-307" y="289" width="50" height="10" fill="url(#linearGradient1951)" opacity=".5"/>
   <rect id="rect53-2" transform="translate(3,2)" x="278" y="257" width="7" height="1" fill-opacity="0"/>
  </g>
  <path id="path111-0" d="m17 9v8h50v-8z" color="#383c4a" fill="#23232F" stroke-width="1.069"/>
  <path id="path943" d="m17 9v1h50v-1z" color="#383c4a" fill="#fafafa" opacity=".1"/>
 </g>
 <g id="decoration-topleft" transform="matrix(1.0588 0 0 1.0588 12 27)">
  <path id="shadow-topleft-7" transform="matrix(.94445 0 0 .94445 -16.056 -143.56)" d="m17 152v18h10v-8h8v-10z" fill="url(#radialGradient1910)" opacity=".5" stroke-width="1.0588"/>
  <path id="path63-5" d="m17 9.4444-7.5556 0.033339v7.5222h7.5556z" color="#383c4a" fill="#23232F" stroke-width="1.0794"/>
  <path id="path923" d="m17 9.4111-7.5556 0.066716v0.87773l7.5556 0.06668z" color="#383c4a" fill="#fafafa" opacity=".1" stroke-width="1.0794"/>
 </g>
 <g id="decoration-bottomleft" transform="matrix(1.0588 0 0 -1.0588 12 113)">
  <path id="path928" transform="matrix(.94445 0 0 .94445 -16.056 -143.56)" d="m17 152v18h10v-8h8v-10z" fill="url(#radialGradient1908)" opacity=".5" stroke-width="1.0588"/>
  <path id="path930" transform="matrix(.94445 0 0 .94445 -16.056 -143.56)" d="m35 162h-8v8h8z" color="#383c4a" fill="#23232F" stroke-width="1.1429"/>
 </g>
 <use id="decoration-bottomright" transform="matrix(-1,0,0,1,110,0)" width="100%" height="100%" xlink:href="#decoration-bottomleft"/>
 <use id="decoration-right" transform="matrix(-1,0,0,1,110,0)" width="100%" height="100%" xlink:href="#decoration-left"/>
 <use id="decoration-topright" transform="matrix(-1,0,0,1,110,0)" width="100%" height="100%" xlink:href="#decoration-topleft"/>
 <g id="decoration-inactive-left" transform="matrix(1.0588 0 0 1 114 28)">
  <g id="g948" transform="matrix(-1,0,0,1,298,-240)">
   <rect id="rect944" transform="rotate(-90)" x="-307" y="288.56" width="50" height="9.4444" fill="url(#linearGradient1906)" opacity=".25" stroke-width=".97182"/>
   <rect id="rect946" transform="translate(3,2)" x="278" y="257" width="7" height="1" fill-opacity="0"/>
  </g>
  <path id="path951" d="m9.4444 17v50h7.5556v-50z" color="#383c4a" fill="#23232F" stroke-width="1.0389"/>
 </g>
 <g id="decoration-inactive-topleft" transform="matrix(1.0588 0 0 1.0588 114 27)">
  <path id="path956" transform="matrix(.94445 0 0 .94445 -16.056 -143.56)" d="m17 152v18h10v-8h8v-10z" fill="url(#radialGradient1904)" opacity=".25" stroke-width="1.0588"/>
  <path id="path958" transform="matrix(.94445 0 0 .94445 -16.056 -143.56)" d="m35 162h-8v8h8z" color="#383c4a" fill="#23232F" stroke-width="1.1429"/>
  <path id="path960" transform="matrix(.94445 0 0 .94445 -16.056 -143.56)" d="m35 162h-8v1h8z" color="#383c4a" fill="#fafafa" opacity=".1" stroke-width="1.1429"/>
 </g>
 <g id="decoration-inactive-bottomleft" transform="matrix(1.0588 0 0 -1.0588 114 113)">
  <path id="path964" transform="matrix(.94445 0 0 .94445 -16.056 -143.56)" d="m17 152v18h10v-8h8v-10z" fill="url(#radialGradient1902)" opacity=".25" stroke-width="1.0588"/>
  <path id="path966" transform="matrix(.94445 0 0 .94445 -16.056 -143.56)" d="m35 162h-8v8h8z" color="#383c4a" fill="#23232F" stroke-width="1.1429"/>
 </g>
 <g id="decoration-inactive-bottom" transform="translate(115,29)">
  <g id="g980" transform="rotate(90,269,55)">
   <rect id="rect976" transform="rotate(-90)" x="-307" y="288" width="50" height="10" fill="url(#linearGradient998)" opacity=".25"/>
   <rect id="rect978" transform="translate(3,2)" x="278" y="257" width="7" height="1" fill-opacity="0"/>
  </g>
  <path id="path982" d="m17 66v8h50v-8z" color="#383c4a" fill="#23232F" stroke-width="1.069"/>
 </g>
 <g id="decoration-inactive-top" transform="translate(115,28)">
  <g id="g990" transform="matrix(0,-1,-1,0,324,298)">
   <rect id="rect986" transform="rotate(-90)" x="-307" y="289" width="50" height="10" fill="url(#linearGradient1000)" opacity=".25"/>
   <rect id="rect988" transform="translate(3,2)" x="278" y="257" width="7" height="1" fill-opacity="0"/>
  </g>
  <path id="path992" d="m17 9v8h50v-8z" color="#383c4a" fill="#23232F" stroke-width="1.069"/>
  <path id="path994" d="m17 9v1h50v-1z" color="#383c4a" fill="#fafafa" opacity=".1"/>
 </g>
 <use id="decoration-inactive-topright" transform="matrix(-1,0,0,1,314,0)" width="100%" height="100%" xlink:href="#decoration-inactive-topleft"/>
 <use id="decoration-inactive-bottomright" transform="rotate(-90,157,70)" width="100%" height="100%" xlink:href="#decoration-inactive-bottomleft"/>
 <use id="decoration-inactive-right" transform="matrix(-1,0,0,1,314,0)" width="100%" height="100%" xlink:href="#decoration-inactive-left"/>
</svg>
