<svg id="svg9" width="50" height="20" version="1.1" viewBox="0 0 50 20" xmlns="http://www.w3.org/2000/svg" xmlns:cc="http://creativecommons.org/ns#" xmlns:dc="http://purl.org/dc/elements/1.1/" xmlns:rdf="http://www.w3.org/1999/02/22-rdf-syntax-ns#">
 <defs id="defs3">
  <style id="current-color-scheme" type="text/css">
   .ColorScheme-Text {
      color:#101017;
      stop-color:#101017;
      }
      .ColorScheme-Background {
      color:#e3e3ff;
      stop-color:#e3e3ff;
      }
      .ColorScheme-Highlight {
      color:#3daee9;
      stop-color:#3daee9;
      }
      .ColorScheme-ViewText {
      color:#101017;
      stop-color:#101017;
      }
      .ColorScheme-ViewBackground {
      color:#e3e3ff;
      stop-color:#e3e3ff;
      }
      .ColorScheme-ViewHover {
      color:#93cee9;
      stop-color:#93cee9;
      }
      .ColorScheme-ViewFocus{
      color:#3daee9;
      stop-color:#3daee9;
      }
      .ColorScheme-ButtonText {
      color:#101017;
      stop-color:#101017;
      }
      .ColorScheme-ButtonBackground {
      color:#e3e3ff;
      stop-color:#e3e3ff;
      }
      .ColorScheme-ButtonHover {
      color:#93cee9;
      stop-color:#93cee9;
      }
      .ColorScheme-ButtonFocus{
      color:#3daee9;
      stop-color:#3daee9;
      }
  </style>
 </defs>
 <g id="checkbox">
  <path id="123" d="m41 1h-14c-1.11 0-2 0.9-2 2v14c0 1.1 0.89 2 2 2h14c1.11 0 2-0.9 2-2v-14c0-1.1-0.89-2-2-2zm-9 14-5-5 1.41-1.41 3.59 3.58 7.59-7.59 1.41 1.42z" fill="none"/>
  <path id="path820" d="m29.625 3c-1.4542 0-2.625 1.1708-2.625 2.625v8.75c0 1.4542 1.1708 2.625 2.625 2.625h8.75c1.4542 0 2.625-1.1708 2.625-2.625v-8.75c0-1.4542-1.1708-2.625-2.625-2.625z" fill="#e3e3ff" stroke-width=".77778"/>
  <path id="path824" d="m29 2c-1.662 0-3 1.338-3 3v10c0 1.662 1.338 3 3 3h10c1.662 0 3-1.338 3-3v-10c0-1.662-1.338-3-3-3h-10zm9.9688 3.1816 1.2539 1.2637-8 8-4.4453-4.4453 1.2539-1.2539 3.1914 3.1836 6.7461-6.748z" fill="#FF578B" stroke-width=".88889"/>
 </g>
 <g id="radiobutton">
  <path id="222" d="m10 5c-2.76 0-5 2.24-5 5s2.24 5 5 5 5-2.24 5-5-2.24-5-5-5zm0-5c-5.52 0-10 4.48-10 10s4.48 10 10 10 10-4.48 10-10-4.48-10-10-10zm0 18c-4.42 0-8-3.58-8-8s3.58-8 8-8 8 3.58 8 8-3.58 8-8 8z" fill="none"/>
  <path id="path822" d="m10 2c-4.416 0-8 3.584-8 8s3.584 8 8 8 8-3.584 8-8-3.584-8-8-8z" fill="#e3e3ff" stroke-width=".8"/>
  <path id="path833" d="m10 1c-4.968 0-9 4.032-9 9s4.032 9 9 9 9-4.032 9-9-4.032-9-9-9zm0 2c3.864 0 7 3.136 7 7s-3.136 7-7 7-7-3.136-7-7 3.136-7 7-7z" fill="#FF578B" stroke-width=".9"/>
  <path id="path843" d="m10 6c-2.208 0-4 1.792-4 4s1.792 4 4 4 4-1.792 4-4-1.792-4-4-4z" fill="#FF578B" stroke-width=".4"/>
 </g>
</svg>
