<svg id="svg121" width="100" height="100" version="1" xmlns="http://www.w3.org/2000/svg" xmlns:cc="http://creativecommons.org/ns#" xmlns:dc="http://purl.org/dc/elements/1.1/" xmlns:rdf="http://www.w3.org/1999/02/22-rdf-syntax-ns#" xmlns:xlink="http://www.w3.org/1999/xlink">
 <metadata id="metadata125">
  <rdf:RDF>
   <cc:Work rdf:about="">
    <dc:format>image/svg+xml</dc:format>
    <dc:type rdf:resource="http://purl.org/dc/dcmitype/StillImage"/>
    <dc:title/>
   </cc:Work>
  </rdf:RDF>
 </metadata>
 <defs id="defs14">
  <linearGradient id="a">
   <stop id="stop2" stop-opacity=".5098" offset="0"/>
   <stop id="stop4" stop-opacity="0" offset="1"/>
  </linearGradient>
  <radialGradient id="g" cx="74.93" cy="25.07" r="1.6471" gradientTransform="matrix(-22.464 2.0568e-5 2.0568e-5 22.464 1712.2 -534.17)" gradientUnits="userSpaceOnUse" xlink:href="#a"/>
  <linearGradient id="linearGradient957" x1="83.327" x2="83.327" y1="-965.03" y2="-952.7" gradientTransform="matrix(.71429 0 0 3 -317.71 3175.1)" gradientUnits="userSpaceOnUse" xlink:href="#a"/>
  <radialGradient id="radialGradient963" cx="5.3529" cy="50.292" r="1.6471" gradientUnits="userSpaceOnUse" xlink:href="#a"/>
 </defs>
 <g id="shadow-left" transform="matrix(-1 0 0 .84 309 -186.88)">
  <rect id="rect944" transform="rotate(-90)" x="-307" y="288" width="50" height="30" fill="url(#linearGradient957)" opacity=".5"/>
  <rect id="rect946" transform="rotate(-90)" x="-307" y="280" width="50" height="8" fill="none" opacity=".5" stroke-width=".5164"/>
 </g>
 <g id="shadow-bottom" transform="matrix(0 1 .84 0 -186.88 -209)">
  <rect id="rect926" transform="rotate(-90)" x="-307" y="288" width="50" height="30" fill="url(#linearGradient957)" opacity=".5"/>
  <rect id="rect928" transform="rotate(-90)" x="-307" y="280" width="50" height="8" fill="none" opacity=".5" stroke-width=".5164"/>
 </g>
 <g id="shadow-right" transform="matrix(1 0 0 -.84 -209 286.88)">
  <rect id="rect908" transform="rotate(-90)" x="-307" y="288" width="50" height="30" fill="url(#linearGradient957)" opacity=".5"/>
  <rect id="rect910" transform="rotate(-90)" x="-307" y="280" width="50" height="8" fill="none" opacity=".5" stroke-width=".5164"/>
 </g>
 <g id="shadow-topleft" transform="matrix(-1.1176 0 0 1.1176 112.82 -122.93)">
  <g id="g94" transform="matrix(0,4.25,-4.25,0,295.74,106.19)" fill="url(#radialGradient963)">
   <path id="path92" transform="matrix(0 .21053 .21053 0 .89471 45.834)" d="m-9-9v38h30a8 8 0 0 1 8-8v-30h-38z" color="#000000" color-rendering="auto" fill="url(#g)" image-rendering="auto" opacity=".5" shape-rendering="auto" solid-color="#000000" stroke-width="4.75" style="isolation:auto;mix-blend-mode:normal"/>
  </g>
 </g>
 <g id="shadow-top" transform="matrix(0 -1 -.84 0 286.88 309)">
  <rect id="rect81" transform="rotate(-90)" x="-307" y="288" width="50" height="30" fill="url(#linearGradient957)" opacity=".5"/>
  <rect id="rect905" transform="rotate(-90)" x="-307" y="280" width="50" height="8" fill="none" opacity=".5" stroke-width=".5164"/>
 </g>
 <g id="top" transform="matrix(-.84 0 0 1.1432 230.6 -267.08)" fill="#050505" fill-opacity=".85882">
  <path id="path58" d="m190 252h50v6.9999h-50z" fill="#101017" fill-opacity="1" opacity=".95"/>
 </g>
 <g id="shadow-topright" transform="matrix(0 -1.1176 -1.1176 0 222.93 112.82)">
  <g id="g900" transform="matrix(0,4.25,-4.25,0,295.74,106.19)" fill="url(#radialGradient963)">
   <path id="path898" transform="matrix(0 .21053 .21053 0 .89471 45.834)" d="m-9-9v38h30a8 8 0 0 1 8-8v-30z" color="#000000" color-rendering="auto" fill="url(#g)" image-rendering="auto" opacity=".5" shape-rendering="auto" solid-color="#000000" stroke-width="4.75" style="isolation:auto;mix-blend-mode:normal"/>
  </g>
 </g>
 <g id="shadow-bottomright" transform="matrix(1.1176 0 0 -1.1176 -12.823 222.93)">
  <g id="g918" transform="matrix(0,4.25,-4.25,0,295.74,106.19)" fill="url(#radialGradient963)">
   <path id="path916" transform="matrix(0 .21053 .21053 0 .89471 45.834)" d="m-9-9v38h30a8 8 0 0 1 8-8v-30z" color="#000000" color-rendering="auto" fill="url(#g)" image-rendering="auto" opacity=".5" shape-rendering="auto" solid-color="#000000" stroke-width="4.75" style="isolation:auto;mix-blend-mode:normal"/>
  </g>
 </g>
 <g id="shadow-bottomleft" transform="matrix(0 1.1176 1.1176 0 -122.93 -12.823)">
  <g id="g936" transform="matrix(0,4.25,-4.25,0,295.74,106.19)" fill="url(#radialGradient963)">
   <path id="path934" transform="matrix(0 .21053 .21053 0 .89471 45.834)" d="m-9-9v38h30a8 8 0 0 1 8-8v-30z" color="#000000" color-rendering="auto" fill="url(#g)" image-rendering="auto" opacity=".5" shape-rendering="auto" solid-color="#000000" stroke-width="4.75" style="isolation:auto;mix-blend-mode:normal"/>
  </g>
 </g>
 <g id="mask-left" transform="matrix(0 .84 2 0 -539 -182.36)">
  <path id="path16" d="m254 347h50l1e-5 4h-50z"/>
 </g>
 <rect id="mask-center" x="163" y="31" width="42" height="42" stroke-width=".84"/>
 <g id="mask-topright" transform="matrix(2,0,0,2,-403,-671)">
  <path id="path20" d="m308 351a4 4 0 0 0-4-4v4z" color="#000000" color-rendering="auto" image-rendering="auto" shape-rendering="auto" solid-color="#000000" style="isolation:auto;mix-blend-mode:normal"/>
 </g>
 <g id="mask-top" transform="matrix(.84 0 0 2 -50.36 -671)">
  <path id="path23" d="m254 347h50l1e-5 4h-50z"/>
 </g>
 <g id="mask-right" transform="matrix(0 .84 -2 0 907 -182.36)">
  <path id="path26" d="m254 347h50l1e-5 4h-50z"/>
 </g>
 <g id="mask-topleft" transform="matrix(-1.75,0,0,1.75,694,-584.25)">
  <path id="path29" d="m303.43 347a4.5714 4.5714 0 0 1 4.5714 4.5714h-4.5714z" color="#000000" color-rendering="auto" image-rendering="auto" shape-rendering="auto" solid-color="#000000" stroke-width="1.1429" style="isolation:auto;mix-blend-mode:normal"/>
 </g>
 <g id="mask-bottom" transform="matrix(.84 0 0 -2 -50.36 775)">
  <path id="path32" d="m254 347h50l1e-5 4h-50z"/>
 </g>
 <g id="mask-bottomright" transform="matrix(2 0 0 -2 -295 883)">
  <path id="path35" d="m250 401a4 4 0 0 1 4 4h-4z" color="#000000" color-rendering="auto" image-rendering="auto" shape-rendering="auto" solid-color="#000000" style="isolation:auto;mix-blend-mode:normal"/>
 </g>
 <g id="mask-bottomleft" transform="matrix(-2,0,0,-2,771,883)">
  <path id="path38" d="m308 405a4 4 0 0 0-4-4v4z" color="#000000" color-rendering="auto" image-rendering="auto" shape-rendering="auto" solid-color="#000000" style="isolation:auto;mix-blend-mode:normal"/>
 </g>
 <rect id="hint-stretch-borders" x="7.5" y="2.4414e-6" width="5" height="5" color="#000000" color-rendering="auto" fill="#e4720c" image-rendering="auto" shape-rendering="auto" solid-color="#000000" style="isolation:auto;mix-blend-mode:normal"/>
 <g id="right" transform="matrix(-1.1429 0 0 .84 288.14 -188.56)" fill="#050505" fill-opacity=".85882">
  <path id="path52" d="m183 259v50l7 1e-5v-50z" fill="#101017" fill-opacity="1" opacity=".95"/>
 </g>
 <g id="left" transform="matrix(-1.1429 0 0 .84 303.29 -188.56)" fill="#050505" fill-opacity=".85882">
  <path id="path55" d="m247 259v50l-7 1e-5v-50z" fill="#101017" fill-opacity="1" opacity=".95"/>
 </g>
 <g id="bottom" transform="matrix(.84 0 0 -1.1429 -130.6 367)" fill="#050505" fill-opacity=".85882">
  <path id="path67" d="m190 252h50v6.9999h-50z" fill="#101017" fill-opacity="1" opacity=".95"/>
 </g>
 <g id="topright" transform="matrix(-2,0,0,2,85,-74.879)" fill="#050505" fill-opacity=".85882">
  <path id="path61" d="m7 47.939a4 4 0 0 0-4 4h4z" color="#000000" color-rendering="auto" fill="#101017" fill-opacity="1" image-rendering="auto" opacity=".95" shape-rendering="auto" solid-color="#000000" style="isolation:auto;mix-blend-mode:normal"/>
 </g>
 <g id="bottomleft" transform="matrix(2 0 0 -2 15 174.88)" fill="#050505" fill-opacity=".85882">
  <path id="path70" d="m7 47.939a4 4 0 0 0-4 4h4z" color="#000000" color-rendering="auto" fill="#101017" fill-opacity="1" image-rendering="auto" opacity=".95" shape-rendering="auto" solid-color="#000000" style="isolation:auto;mix-blend-mode:normal"/>
 </g>
 <g id="bottomright" transform="matrix(0 -2.0002 -2.0002 0 174.89 85.001)" fill="#050505" fill-opacity=".85882">
  <path id="path73" d="m3.0005 51.939a3.9995 3.9995 0 0 1 3.9995-3.9995v3.9995z" color="#000000" color-rendering="auto" fill="#101017" fill-opacity="1" image-rendering="auto" opacity=".95" shape-rendering="auto" solid-color="#000000" stroke-width=".99988" style="isolation:auto;mix-blend-mode:normal"/>
 </g>
 <rect id="center" transform="scale(-1)" x="-71" y="-71" width="42" height="42" fill="#101017" opacity=".95" stroke-width=".84"/>
 <rect id="shadow-hint-left-margin" x="-9" y="48" width="30" height="4" fill="#f99133"/>
 <rect id="shadow-hint-right-margin" x="79" y="48" width="30" height="4" fill="#f99133"/>
 <rect id="shadow-hint-top-margin" x="48" y="-9" width="4" height="30" fill="#f99133"/>
 <rect id="shadow-hint-bottom-margin" x="48" y="79" width="4" height="30" fill="#f99133"/>
 <g id="topleft" transform="matrix(0,2,2,0,-74.878,15)" fill="#050505" fill-opacity=".85882">
  <path id="path64" d="m7 47.939a4 4 0 0 0-4 4h4z" color="#000000" color-rendering="auto" fill="#101017" fill-opacity="1" image-rendering="auto" opacity=".95" shape-rendering="auto" solid-color="#000000" style="isolation:auto;mix-blend-mode:normal"/>
 </g>
 <rect id="hint-top-margin" x="48" y="21" width="4" height="8" color="#000000" color-rendering="auto" fill="#37a4f5" image-rendering="auto" shape-rendering="auto" solid-color="#000000" stroke-width="1.4142" style="isolation:auto;mix-blend-mode:normal"/>
 <rect id="hint-right-margin" x="71" y="48" width="8" height="4" color="#000000" color-rendering="auto" fill="#37a4f5" image-rendering="auto" shape-rendering="auto" solid-color="#000000" stroke-width="1.4142" style="isolation:auto;mix-blend-mode:normal"/>
 <rect id="hint-left-margin" x="21" y="48" width="8" height="4" color="#000000" color-rendering="auto" fill="#37a4f5" image-rendering="auto" shape-rendering="auto" solid-color="#000000" stroke-width="1.4142" style="isolation:auto;mix-blend-mode:normal"/>
 <rect id="hint-bottom-margin" x="48" y="71" width="4" height="7.9999" color="#000000" color-rendering="auto" fill="#37a4f5" image-rendering="auto" shape-rendering="auto" solid-color="#000000" stroke-width="1.4142" style="isolation:auto;mix-blend-mode:normal"/>
</svg>
