<svg id="svg99" width="128" height="128" version="1" xmlns="http://www.w3.org/2000/svg" xmlns:cc="http://creativecommons.org/ns#" xmlns:dc="http://purl.org/dc/elements/1.1/" xmlns:rdf="http://www.w3.org/1999/02/22-rdf-syntax-ns#" xmlns:xlink="http://www.w3.org/1999/xlink">
 <defs id="defs17">
  <linearGradient id="linearGradient4209">
   <stop id="stop2" offset="0"/>
   <stop id="stop4" stop-opacity="0" offset="1"/>
  </linearGradient>
  <radialGradient id="radialGradient4201" cx="63.894" cy="61.058" r="9" gradientTransform="matrix(-6.1375e-7 1.2222 -1.2222 -6.256e-7 142.63 -21.092)" gradientUnits="userSpaceOnUse" xlink:href="#linearGradient4209"/>
  <radialGradient id="radialGradient4203" cx="-31.636" cy="8.519" r="8.182" gradientTransform="matrix(0 1.4444 -1 0 -23.571 54.694)" gradientUnits="userSpaceOnUse" xlink:href="#linearGradient4209"/>
  <radialGradient id="radialGradient4205" cx="27" cy="43.961" r="13" gradientTransform="matrix(6.1944e-8 1.3846 -1.1538 5.162e-8 77.724 12.615)" gradientUnits="userSpaceOnUse" xlink:href="#linearGradient4209"/>
  <radialGradient id="radialGradient4207" cx="-32.298" cy="8.715" r="8.125" gradientTransform="matrix(0 1.3846 -1 0 -23.375 53.434)" gradientUnits="userSpaceOnUse" xlink:href="#linearGradient4209"/>
  <radialGradient id="radialGradient4231" cx="25.188" cy="82.744" r="13" gradientTransform="matrix(-9.7841e-8 1.3846 -1.2308 -8.697e-8 127.84 52.125)" gradientUnits="userSpaceOnUse" xlink:href="#linearGradient4209"/>
  <radialGradient id="radialGradient4233" cx="68" cy="90.554" r="9" gradientTransform="matrix(-1.0678e-6 1.2222 -1.2222 -1.0678e-6 178.68 10.889)" gradientUnits="userSpaceOnUse" xlink:href="#linearGradient4209"/>
  <radialGradient id="radialGradient4189" cx="25.188" cy="82.744" r="13" gradientTransform="matrix(-9.7841e-8 1.3846 -1.2308 -8.697e-8 127.84 51.125)" gradientUnits="userSpaceOnUse" xlink:href="#linearGradient4209"/>
  <radialGradient id="radialGradient4193" cx="27" cy="43.961" r="13" gradientTransform="matrix(6.1944e-8 1.3846 -1.1538 5.162e-8 77.724 11.615)" gradientUnits="userSpaceOnUse" xlink:href="#linearGradient4209"/>
  <radialGradient id="radialGradient4197" cx="63.894" cy="61.058" r="9" gradientTransform="matrix(-6.1375e-7 1.2222 -1.2222 -6.256e-7 142.63 -21.592)" gradientUnits="userSpaceOnUse" xlink:href="#linearGradient4209"/>
  <radialGradient id="radialGradient4202" cx="68" cy="90.554" r="9" gradientTransform="matrix(-1.0678e-6 1.2222 -1.2222 -1.0678e-6 178.68 10.389)" gradientUnits="userSpaceOnUse" xlink:href="#linearGradient4209"/>
 </defs>
 <g id="normal" transform="matrix(1.6 0 0 1.6 78.344 3.056)">
  <rect id="rect19" x="-42.09" y="-1.91" width="20" height="20" opacity=".005"/>
  <circle id="circle21" cx="-32.09" cy="8.715" r="8.125" fill="url(#radialGradient4207)"/>
  <circle id="circle23" transform="matrix(1.0156 0 0 1.0156 .40985 -.035)" cx="-32" cy="8" r="8" fill="#1f1f2a"/>
  <path id="path25" transform="matrix(.625 0 0 .625 -48.965 -1.91)" d="m27 3a13 13 0 0 0-13 13 13 13 0 0 0 0.021484 0.58008 13 13 0 0 1 12.979-12.58 13 13 0 0 1 12.979 12.42 13 13 0 0 0 0.021484-0.41992 13 13 0 0 0-13-13z" fill="#e3e3ff" opacity=".05"/>
 </g>
 <g id="22-22-normal" transform="matrix(1.1 0 0 1.1 103.3 13.101)">
  <rect id="rect28" x="-42.09" y="-1.91" width="20" height="20" opacity=".005"/>
  <path id="path30" d="m-23.908 8.5445a8.1818 8.1818 0 0 1-8.1818 8.1818 8.1818 8.1818 0 0 1-8.1818-8.1818 8.1818 8.1818 0 0 1 8.1818-8.1818 8.1818 8.1818 0 0 1 8.1818 8.1818z" fill="url(#radialGradient4203)"/>
  <path id="path32" transform="matrix(1.0227 0 0 1.0227 .63712 -.091818)" d="m-24 8a8 8 0 0 1-8 8 8 8 0 0 1-8-8 8 8 0 0 1 8-8 8 8 0 0 1 8 8z" fill="#1f1f2a"/>
  <path id="path34" transform="matrix(.90909 0 0 .90909 -93.908 -11.91)" d="m68 13a9 9 0 0 0-9 9 9 9 0 0 0 0.009766 0.28711 9 9 0 0 1 8.9902-8.7871 9 9 0 0 1 8.9902 8.7129 9 9 0 0 0 0.009766-0.21289 9 9 0 0 0-9-9z" fill="#e3e3ff" opacity=".05"/>
 </g>
 <g id="pressed" transform="matrix(1.6 0 0 1.6 156.34 16.056)">
  <rect id="rect37" x="-42.09" y="-1.91" width="20" height="20" opacity=".005"/>
  <circle id="circle39" transform="matrix(1.0156 0 0 1.0156 .40985 -.035)" cx="-32" cy="8" r="8" fill="#FF578B"/>
 </g>
 <g id="22-22-pressed" transform="matrix(1.1 0 0 1.1 141.3 56.101)">
  <rect id="rect42" x="-42.09" y="-1.91" width="20" height="20" opacity=".005"/>
  <path id="path44" transform="matrix(1.0227 0 0 1.0227 .63712 -.091818)" d="m-24 8a8 8 0 0 1-8 8 8 8 0 0 1-8-8 8 8 0 0 1 8-8 8 8 0 0 1 8 8z" fill="#FF578B"/>
 </g>
 <g id="hover">
  <rect id="rect47" x="11" y="34" width="32" height="32" opacity=".005"/>
  <path id="path49" d="m39.979 50.42a13 13 0 0 1-0.08398 1.0137 13 13 0 0 1-0.05859 0.47852 13 13 0 0 1-0.14648 0.78906 13 13 0 0 1-0.11328 0.49805 13 13 0 0 1-0.22266 0.76562 13 13 0 0 1-0.15625 0.46484 13 13 0 0 1-0.29297 0.73242 13 13 0 0 1-0.22266 0.49024 13 13 0 0 1-0.3418 0.6543 13 13 0 0 1-0.27734 0.48047 13 13 0 0 1-0.41406 0.62891 13 13 0 0 1-0.32031 0.44531 13 13 0 0 1-0.47266 0.58203 13 13 0 0 1-0.36719 0.41211 13 13 0 0 1-0.51562 0.51953 13 13 0 0 1-0.41992 0.39062 13 13 0 0 1-0.55664 0.45703 13 13 0 0 1-0.4668 0.35352 13 13 0 0 1-0.58789 0.39062 13 13 0 0 1-0.50195 0.30664 13 13 0 0 1-0.64648 0.34375 13 13 0 0 1-0.49609 0.23828 13 13 0 0 1-0.68945 0.28125 13 13 0 0 1-0.53906 0.19531 13 13 0 0 1-0.66602 0.19727 13 13 0 0 1-0.5918 0.15039 13 13 0 0 1-0.69531 0.13086 13 13 0 0 1-0.57812 0.08594 13 13 0 0 1-0.70898 0.0625 13 13 0 0 1-0.82813 0.041013 13 13 0 0 1-1.2969-0.066406 13 13 0 0 1-11.682-12.354 13 13 0 0 0-0.021484 0.41992 13 13 0 0 0 0.025391 0.49609 13 13 0 0 0-0.025391 0.50391 13 13 0 0 0 13 13 13 13 0 0 0 13-13 13 13 0 0 0-0.019531-0.44531 13 13 0 0 0 0.019531-0.55469 13 13 0 0 0-0.021484-0.58008z" fill="url(#radialGradient4205)"/>
  <path id="path51" d="M 27,37 A 13,13 0 0 0 14,50 13,13 0 0 0 14.021484,50.580078 13,13 0 0 1 27,38 13,13 0 0 1 39.978516,50.419922 13,13 0 0 0 40,50 13,13 0 0 0 27,37 Z" fill="#e3e3ff" opacity=".005"/>
  <path id="path53" d="m39.979 49.42a13 13 0 0 1-0.08398 1.0137 13 13 0 0 1-0.05859 0.47852 13 13 0 0 1-0.14648 0.78906 13 13 0 0 1-0.11328 0.49805 13 13 0 0 1-0.22266 0.76562 13 13 0 0 1-0.15625 0.46484 13 13 0 0 1-0.29297 0.73242 13 13 0 0 1-0.22266 0.49024 13 13 0 0 1-0.3418 0.6543 13 13 0 0 1-0.27734 0.48047 13 13 0 0 1-0.41406 0.62891 13 13 0 0 1-0.32031 0.44531 13 13 0 0 1-0.47266 0.58203 13 13 0 0 1-0.36719 0.41211 13 13 0 0 1-0.51562 0.51953 13 13 0 0 1-0.41992 0.39062 13 13 0 0 1-0.55664 0.45703 13 13 0 0 1-0.4668 0.35352 13 13 0 0 1-0.58789 0.39062 13 13 0 0 1-0.50195 0.30664 13 13 0 0 1-0.64648 0.34375 13 13 0 0 1-0.49609 0.23828 13 13 0 0 1-0.68945 0.28125 13 13 0 0 1-0.53906 0.19531 13 13 0 0 1-0.66602 0.19727 13 13 0 0 1-0.5918 0.15039 13 13 0 0 1-0.69531 0.13086 13 13 0 0 1-0.57812 0.08594 13 13 0 0 1-0.70898 0.0625 13 13 0 0 1-0.82813 0.041013 13 13 0 0 1-1.2969-0.066406 13 13 0 0 1-11.682-12.354 13 13 0 0 0-0.021484 0.41992 13 13 0 0 0 0.025391 0.49609 13 13 0 0 0-0.025391 0.50391 13 13 0 0 0 13 13 13 13 0 0 0 13-13 13 13 0 0 0-0.019531-0.44531 13 13 0 0 0 0.019531-0.55469 13 13 0 0 0-0.021484-0.58008z" fill="url(#radialGradient4193)"/>
  <circle id="circle55" cx="27" cy="50" r="13" fill="#1f1f2a"/>
  <path id="path57" d="m27 37a13 13 0 0 0-13 13 13 13 0 0 0 0.021484 0.58008 13 13 0 0 1 12.979-12.58 13 13 0 0 1 12.979 12.42 13 13 0 0 0 0.021484-0.41992 13 13 0 0 0-13-13z" fill="#e3e3ff" opacity=".05"/>
 </g>
 <g id="focus">
  <path id="path60" d="m39.979 87.42a13 13 0 0 1-0.08398 1.0137 13 13 0 0 1-0.05859 0.47852 13 13 0 0 1-0.14648 0.78906 13 13 0 0 1-0.11328 0.49805 13 13 0 0 1-0.22266 0.76562 13 13 0 0 1-0.15625 0.46484 13 13 0 0 1-0.29297 0.73242 13 13 0 0 1-0.22266 0.49024 13 13 0 0 1-0.3418 0.6543 13 13 0 0 1-0.27734 0.48047 13 13 0 0 1-0.41406 0.62891 13 13 0 0 1-0.32031 0.44531 13 13 0 0 1-0.47266 0.58203 13 13 0 0 1-0.36719 0.41211 13 13 0 0 1-0.51562 0.51953 13 13 0 0 1-0.41992 0.39062 13 13 0 0 1-0.55664 0.45703 13 13 0 0 1-0.4668 0.35352 13 13 0 0 1-0.58789 0.39062 13 13 0 0 1-0.50195 0.30664 13 13 0 0 1-0.64648 0.34375 13 13 0 0 1-0.49609 0.23828 13 13 0 0 1-0.68945 0.28125 13 13 0 0 1-0.53906 0.19531 13 13 0 0 1-0.66602 0.19727 13 13 0 0 1-0.5918 0.15039 13 13 0 0 1-0.69531 0.13086 13 13 0 0 1-0.57812 0.08594 13 13 0 0 1-0.70898 0.0625 13 13 0 0 1-0.82813 0.041013 13 13 0 0 1-1.2969-0.066406 13 13 0 0 1-11.682-12.354 13 13 0 0 0-0.021484 0.41992 13 13 0 0 0 0.025391 0.49609 13 13 0 0 0-0.025391 0.50391 13 13 0 0 0 13 13 13 13 0 0 0 13-13 13 13 0 0 0-0.019531-0.44531 13 13 0 0 0 0.019531-0.55469 13 13 0 0 0-0.021484-0.58008z" fill="url(#radialGradient4231)"/>
  <rect id="rect62" x="11" y="71" width="32" height="32" opacity=".005"/>
  <path id="path64" d="M 27,74 A 13,13 0 0 0 14,87 13,13 0 0 0 14.021484,87.580078 13,13 0 0 1 27,75 13,13 0 0 1 39.978516,87.419922 13,13 0 0 0 40,87 13,13 0 0 0 27,74 Z" fill="#e3e3ff" opacity=".005"/>
  <path id="path66" d="m39.979 86.42a13 13 0 0 1-0.08398 1.0137 13 13 0 0 1-0.05859 0.47852 13 13 0 0 1-0.14648 0.78906 13 13 0 0 1-0.11328 0.49805 13 13 0 0 1-0.22266 0.76562 13 13 0 0 1-0.15625 0.46484 13 13 0 0 1-0.29297 0.73242 13 13 0 0 1-0.22266 0.49024 13 13 0 0 1-0.3418 0.6543 13 13 0 0 1-0.27734 0.48047 13 13 0 0 1-0.41406 0.62891 13 13 0 0 1-0.32031 0.44531 13 13 0 0 1-0.47266 0.58203 13 13 0 0 1-0.36719 0.41211 13 13 0 0 1-0.51562 0.51953 13 13 0 0 1-0.41992 0.39062 13 13 0 0 1-0.55664 0.45703 13 13 0 0 1-0.4668 0.35352 13 13 0 0 1-0.58789 0.39062 13 13 0 0 1-0.50195 0.30664 13 13 0 0 1-0.64648 0.34375 13 13 0 0 1-0.49609 0.23828 13 13 0 0 1-0.68945 0.28125 13 13 0 0 1-0.53906 0.19531 13 13 0 0 1-0.66602 0.19727 13 13 0 0 1-0.5918 0.15039 13 13 0 0 1-0.69531 0.13086 13 13 0 0 1-0.57812 0.08594 13 13 0 0 1-0.70898 0.0625 13 13 0 0 1-0.82813 0.041013 13 13 0 0 1-1.2969-0.066406 13 13 0 0 1-11.682-12.354 13 13 0 0 0-0.021484 0.41992 13 13 0 0 0 0.025391 0.49609 13 13 0 0 0-0.025391 0.50391 13 13 0 0 0 13 13 13 13 0 0 0 13-13 13 13 0 0 0-0.019531-0.44531 13 13 0 0 0 0.019531-0.55469 13 13 0 0 0-0.021484-0.58008z" fill="url(#radialGradient4189)"/>
  <circle id="circle68" cx="27" cy="87" r="13" fill="#434352"/>
  <path id="path70" d="m27 74a13 13 0 0 0-13 13 13 13 0 0 0 0.021484 0.58008 13 13 0 0 1 12.979-12.58 13 13 0 0 1 12.979 12.42 13 13 0 0 0 0.021484-0.41992 13 13 0 0 0-13-13z" fill="#e3e3ff" opacity=".05"/>
 </g>
 <g id="22-22-hover">
  <rect id="rect73" x="57" y="45" width="22" height="22" opacity=".005"/>
  <path id="path75" d="m76.99 56.213a9 9 0 0 1-0.02734 0.37305 9 9 0 0 1-0.06836 0.69141 9 9 0 0 1-0.0293 0.16602 9 9 0 0 1-0.14258 0.7207 9 9 0 0 1-0.04492 0.16016 9 9 0 0 1-0.21289 0.69141 9 9 0 0 1-0.07422 0.19336 9 9 0 0 1-0.26758 0.63477 9 9 0 0 1-0.09375 0.18555 9 9 0 0 1-0.33398 0.61328 9 9 0 0 1-0.10937 0.16992 9 9 0 0 1-0.37695 0.55664 9 9 0 0 1-0.19141 0.23828 9 9 0 0 1-0.37891 0.45312 9 9 0 0 1-0.19336 0.19726 9 9 0 0 1-0.45898 0.44922 9 9 0 0 1-0.19141 0.16016 9 9 0 0 1-0.49414 0.39258 9 9 0 0 1-0.24023 0.16406 9 9 0 0 1-0.51758 0.33398 9 9 0 0 1-0.25781 0.14063 9 9 0 0 1-0.51367 0.26367 9 9 0 0 1-0.37695 0.1582 9 9 0 0 1-0.44922 0.17578 9 9 0 0 1-0.38476 0.11719 9 9 0 0 1-0.49024 0.13867 9 9 0 0 1-0.38867 0.07617 9 9 0 0 1-0.47461 0.08398 9 9 0 0 1-0.45703 0.044928 9 9 0 0 1-0.49414 0.03711 9 9 0 0 1-0.25586 0.005859 9 9 0 0 1-1.7871-0.17969 9 9 0 0 1-2.5273-0.92383 9 9 0 0 1-0.76758-0.4707 9 9 0 0 1-0.71484-0.54492 9 9 0 0 1-1.252-1.2891 9 9 0 0 1 0-2e-3 9 9 0 0 1-1.9414-5.3027 9 9 0 0 0-0.009766 0.21289 9 9 0 0 0 0.011719 0.25195 9 9 0 0 0-0.011719 0.24805 9 9 0 0 0 9 9 9 9 0 0 0 9-9 9 9 0 0 0-0.0098-0.24805 9 9 0 0 0 0.0098-0.25195 9 9 0 0 0-0.0098-0.28711z" fill="url(#radialGradient4201)"/>
  <path id="path77" d="m68 47a9 9 0 0 0-9 9 9 9 0 0 0 0.0098 0.28711 9 9 0 0 1 8.9902-8.7871 9 9 0 0 1 8.9902 8.7129 9 9 0 0 0 0.009766-0.21289 9 9 0 0 0-9-9z" fill="#e3e3ff" opacity=".005"/>
  <path id="path79" d="m76.99 55.713a9 9 0 0 1-0.02734 0.37305 9 9 0 0 1-0.06836 0.69141 9 9 0 0 1-0.0293 0.16602 9 9 0 0 1-0.14258 0.7207 9 9 0 0 1-0.04492 0.16016 9 9 0 0 1-0.21289 0.69141 9 9 0 0 1-0.07422 0.19336 9 9 0 0 1-0.26758 0.63477 9 9 0 0 1-0.09375 0.18555 9 9 0 0 1-0.33398 0.61328 9 9 0 0 1-0.10937 0.16992 9 9 0 0 1-0.37695 0.55664 9 9 0 0 1-0.19141 0.23828 9 9 0 0 1-0.37891 0.45312 9 9 0 0 1-0.19336 0.19726 9 9 0 0 1-0.45898 0.44922 9 9 0 0 1-0.19141 0.16016 9 9 0 0 1-0.49414 0.39258 9 9 0 0 1-0.24023 0.16406 9 9 0 0 1-0.51758 0.33398 9 9 0 0 1-0.25781 0.14063 9 9 0 0 1-0.51367 0.26367 9 9 0 0 1-0.37695 0.1582 9 9 0 0 1-0.44922 0.17578 9 9 0 0 1-0.38476 0.11719 9 9 0 0 1-0.49024 0.13867 9 9 0 0 1-0.38867 0.07617 9 9 0 0 1-0.47461 0.08398 9 9 0 0 1-0.45703 0.044928 9 9 0 0 1-0.49414 0.03711 9 9 0 0 1-0.25586 0.005859 9 9 0 0 1-1.7871-0.17969 9 9 0 0 1-2.5273-0.92383 9 9 0 0 1-0.76758-0.4707 9 9 0 0 1-0.71484-0.54492 9 9 0 0 1-1.252-1.2891 9 9 0 0 1 0-2e-3 9 9 0 0 1-1.9414-5.3027 9 9 0 0 0-0.009766 0.21289 9 9 0 0 0 0.011719 0.25195 9 9 0 0 0-0.011719 0.24805 9 9 0 0 0 9 9 9 9 0 0 0 9-9 9 9 0 0 0-0.0098-0.24805 9 9 0 0 0 0.0098-0.25195 9 9 0 0 0-0.0098-0.28711z" fill="url(#radialGradient4197)"/>
  <circle id="circle81" cx="68" cy="56" r="9" fill="#1f1f2a"/>
  <path id="path83" d="m68 47a9 9 0 0 0-9 9 9 9 0 0 0 0.009766 0.28711 9 9 0 0 1 8.9902-8.7871 9 9 0 0 1 8.9902 8.7129 9 9 0 0 0 0.009766-0.21289 9 9 0 0 0-9-9z" fill="#e3e3ff" opacity=".05"/>
 </g>
 <g id="22-22-focus">
  <rect id="rect86" x="57" y="82" width="22" height="22" opacity=".005"/>
  <path id="path88" d="m76.99 93.213a9 9 0 0 1-0.02734 0.37305 9 9 0 0 1-0.06836 0.69141 9 9 0 0 1-0.0293 0.16602 9 9 0 0 1-0.14258 0.7207 9 9 0 0 1-0.04492 0.16016 9 9 0 0 1-0.21289 0.69141 9 9 0 0 1-0.07422 0.19336 9 9 0 0 1-0.26758 0.63477 9 9 0 0 1-0.09375 0.18555 9 9 0 0 1-0.33398 0.61328 9 9 0 0 1-0.10937 0.16992 9 9 0 0 1-0.37695 0.55664 9 9 0 0 1-0.19141 0.23828 9 9 0 0 1-0.37891 0.45312 9 9 0 0 1-0.19336 0.19726 9 9 0 0 1-0.45898 0.44922 9 9 0 0 1-0.19141 0.16016 9 9 0 0 1-0.49414 0.39258 9 9 0 0 1-0.24023 0.16406 9 9 0 0 1-0.51758 0.33398 9 9 0 0 1-0.25781 0.14063 9 9 0 0 1-0.51367 0.26367 9 9 0 0 1-0.37695 0.1582 9 9 0 0 1-0.44922 0.17578 9 9 0 0 1-0.38476 0.11719 9 9 0 0 1-0.49024 0.13867 9 9 0 0 1-0.38867 0.0762 9 9 0 0 1-0.47461 0.084 9 9 0 0 1-0.45703 0.0449 9 9 0 0 1-0.49414 0.0371 9 9 0 0 1-0.25586 0.00585 9 9 0 0 1-1.7871-0.17969 9 9 0 0 1-2.5273-0.92383 9 9 0 0 1-0.76562-0.4707 9 9 0 0 1-2e-3 0 9 9 0 0 1-1.9668-1.8359 9 9 0 0 1-1.9414-5.3027 9 9 0 0 0-0.009766 0.21289 9 9 0 0 0 0.011719 0.25195 9 9 0 0 0-0.011719 0.24805 9 9 0 0 0 9 9 9 9 0 0 0 9-9 9 9 0 0 0-0.0098-0.24805 9 9 0 0 0 0.0098-0.25195 9 9 0 0 0-0.0098-0.28711z" fill="url(#radialGradient4233)"/>
  <path id="path90" d="m68 84a9 9 0 0 0-9 9 9 9 0 0 0 0.0098 0.28711 9 9 0 0 1 8.9902-8.7871 9 9 0 0 1 8.9902 8.7129 9 9 0 0 0 0.009766-0.21289 9 9 0 0 0-9-9z" fill="#e3e3ff" opacity=".005"/>
  <path id="path92" d="m76.99 92.713a9 9 0 0 1-0.02734 0.37305 9 9 0 0 1-0.06836 0.69141 9 9 0 0 1-0.0293 0.16602 9 9 0 0 1-0.14258 0.7207 9 9 0 0 1-0.04492 0.16016 9 9 0 0 1-0.21289 0.69141 9 9 0 0 1-0.07422 0.19336 9 9 0 0 1-0.26758 0.63477 9 9 0 0 1-0.09375 0.18555 9 9 0 0 1-0.33398 0.61328 9 9 0 0 1-0.10937 0.16992 9 9 0 0 1-0.37695 0.55664 9 9 0 0 1-0.19141 0.23828 9 9 0 0 1-0.37891 0.45312 9 9 0 0 1-0.19336 0.19726 9 9 0 0 1-0.45898 0.44922 9 9 0 0 1-0.19141 0.16016 9 9 0 0 1-0.49414 0.39258 9 9 0 0 1-0.24023 0.16406 9 9 0 0 1-0.51758 0.33398 9 9 0 0 1-0.25781 0.14063 9 9 0 0 1-0.51367 0.26367 9 9 0 0 1-0.37695 0.1582 9 9 0 0 1-0.44922 0.17578 9 9 0 0 1-0.38476 0.11719 9 9 0 0 1-0.49024 0.13867 9 9 0 0 1-0.38867 0.0762 9 9 0 0 1-0.47461 0.084 9 9 0 0 1-0.45703 0.0449 9 9 0 0 1-0.49414 0.0371 9 9 0 0 1-0.25586 0.00585 9 9 0 0 1-1.7871-0.17969 9 9 0 0 1-2.5273-0.92383 9 9 0 0 1-0.76562-0.4707 9 9 0 0 1-2e-3 0 9 9 0 0 1-1.9668-1.8359 9 9 0 0 1-1.9414-5.3027 9 9 0 0 0-0.009766 0.21289 9 9 0 0 0 0.011719 0.25195 9 9 0 0 0-0.011719 0.24805 9 9 0 0 0 9 9 9 9 0 0 0 9-9 9 9 0 0 0-0.0098-0.24805 9 9 0 0 0 0.0098-0.25195 9 9 0 0 0-0.0098-0.28711z" fill="url(#radialGradient4202)"/>
  <circle id="circle94" cx="68" cy="93" r="9" fill="#434352"/>
  <path id="path96" d="m68 84a9 9 0 0 0-9 9 9 9 0 0 0 0.009766 0.28711 9 9 0 0 1 8.9902-8.7871 9 9 0 0 1 8.9902 8.7129 9 9 0 0 0 0.009766-0.21289 9 9 0 0 0-9-9z" fill="#e3e3ff" opacity=".05"/>
 </g>
</svg>
