<svg id="svg100" width="200" height="200" version="1.0" xmlns="http://www.w3.org/2000/svg" xmlns:cc="http://creativecommons.org/ns#" xmlns:dc="http://purl.org/dc/elements/1.1/" xmlns:rdf="http://www.w3.org/1999/02/22-rdf-syntax-ns#">
 <defs id="defs19">
  <radialGradient id="radialGradient4671" cx="1255.9" cy="382.73" r="96.606" gradientUnits="userSpaceOnUse">
   <stop id="stop4013" stop-color="#23232F" offset="0"/>
   <stop id="stop4019" stop-color="#23232F" stop-opacity=".52349" offset=".9"/>
   <stop id="stop4021" stop-color="#23232F" stop-opacity=".10738" offset=".96"/>
   <stop id="stop4015" stop-color="#23232F" stop-opacity="0" offset="1"/>
  </radialGradient>
 </defs>
 <g id="ClockFace" transform="translate(-917.46 -480.02)">
  <g id="g4323">
   <rect id="rect4069" x="910.46" y="473.02" width="214" height="214" fill="#7b7c7e" opacity=".005"/>
   <circle id="path4329" transform="matrix(1.0765 0 0 1.0765 -334.54 169.99)" cx="1255.9" cy="382.73" r="96.606" fill="url(#radialGradient4671)"/>
   <g id="g4245">
    <circle id="path5099" transform="translate(-238.41 197.29)" cx="1255.9" cy="382.73" r="96.606" fill="#23232F" fill-opacity=".98431"/>
    <g id="g6149" transform="translate(-.5085 -.41219)">
     <path id="path5480" d="m974.36 503.58-0.8437 0.5 2.0937 3.5938c0.2777-0.16344 0.564-0.30841 0.8437-0.46875zm87.875 0-2.0313 3.5312c0.2926 0.16682 0.5847 0.3298 0.875 0.5l2.0313-3.5312zm-95.687 5.0312-0.8125 0.5625 2.4687 3.4062c0.2689-0.19888 0.5412-0.398 0.8126-0.59375zm103.5 0-2.375 3.2812c0.2668 0.19173 0.5481 0.36775 0.8125 0.5625l2.375-3.2812zm-110.75 5.8125-0.7188 0.65625 2.7813 3.0938c0.2398-0.21947 0.5076-0.40827 0.75-0.625zm118 0-2.7188 3c0.2483 0.22104 0.5045 0.43234 0.75 0.65625l2.7188-3zm-124.59 6.5312-0.6562 0.75 3.125 2.8125c0.2192-0.24732 0.4342-0.50529 0.6562-0.75zm131.19 0-3 2.6875c0.2326 0.25546 0.4579 0.52294 0.6874 0.78125l3-2.7188zm-137.06 7.1875-0.5937 0.78125 3.4375 2.5c0.1922-0.26833 0.3673-0.54652 0.5625-0.8125zm142.94 0-3.25 2.375c0.1905 0.25885 0.3748 0.52016 0.5624 0.78125l3.2813-2.375zm-148.06 7.75-0.5 0.875 3.6876 2.125c0.1656-0.2917 0.3309-0.58548 0.5-0.875zm153.19 0-3.5 2.0312c0.17 0.29042 0.3333 0.58239 0.5 0.875l3.5-2.0312zm-157.44 8.25-0.4062 0.90625 3.875 1.7188c0.1333-0.30532 0.2695-0.60282 0.4062-0.90625zm161.69 0-3.6876 1.625c0.1363 0.3014 0.2735 0.60298 0.4063 0.90625l3.6875-1.625zm-165.06 8.6562-0.3124 0.9375 4.0624 1.3125c0.098-0.30841 0.1804-0.63063 0.2813-0.9375zm168.44 0-3.8438 1.25c0.1021 0.30968 0.2139 0.62625 0.3125 0.9375l3.8437-1.25zm-170.91 8.9688-0.1875 0.96875 4.1562 0.875c0.066-0.32409 0.1492-0.64602 0.2188-0.96875zm173.34 0-3.9374 0.84375c0.069 0.32066 0.1218 0.64674 0.1874 0.96875l3.9688-0.84375zm-174.81 9.1562-0.125 0.96875 4.2812 0.4375c0.031-0.32197 0.059-0.64784 0.094-0.96875l-4.25-0.4375zm176.34 0-4.0625 0.4375c0.035 0.32091 0.063 0.64678 0.094 0.96875l4.0624-0.4375-0.094-0.96875zm-172.16 18.094-4.3124 0.4375 0.125 1 4.2812-0.4375c-0.037-0.33266-0.061-0.66618-0.094-1zm168.16 0c-0.033 0.33382-0.057 0.66734-0.094 1l4.0937 0.4375 0.094-1zm-166.84 8.7188-4.2188 0.90625 0.1875 0.96875 4.25-0.90625c-0.071-0.32234-0.1519-0.64505-0.2187-0.96875zm165.53 0.0625c-0.067 0.32362-0.148 0.6465-0.2188 0.96875l4 0.84375 0.2188-0.96875zm-163.28 8.4688-4.125 1.3438 0.3124 0.96875 4.125-1.3438c-0.1075-0.32327-0.2087-0.64375-0.3124-0.96875zm161 0.0625c-0.1041 0.32488-0.2047 0.64559-0.3126 0.96875l3.9376 1.2812 0.3124-0.96875zm-157.87 8.2188-3.9688 1.7812 0.4062 0.90625 3.9688-1.7812c-0.1376-0.30308-0.2721-0.60127-0.4062-0.90625zm154.75 0.0937c-0.1339 0.30333-0.269 0.60481-0.4063 0.90625l3.7813 1.6875 0.4062-0.90625zm-150.75 7.7812-3.8126 2.1875 0.5 0.875 3.8126-2.1875c-0.1699-0.28898-0.3335-0.58384-0.5-0.875zm146.75 0.0937c-0.1676 0.29207-0.3292 0.58514-0.5 0.875l3.625 2.0938 0.5-0.875zm-142 7.3438-3.5313 2.5625 0.5937 0.8125 3.5313-2.5625c-0.1995-0.27029-0.3974-0.53977-0.5937-0.8125zm137.19 0.0937c-0.1931 0.26753-0.3662 0.54733-0.5624 0.8125l3.375 2.4688 0.5937-0.8125zm-131.62 6.7812-3.2812 2.9375 0.6562 0.75 3.2813-2.9375c-0.2242-0.24569-0.4349-0.50167-0.6563-0.75zm126.09 0.0937c-0.2264 0.25327-0.4581 0.49949-0.6875 0.75l3.1563 2.8438 0.6874-0.75zm-119.94 6.1875-2.9063 3.25 0.7188 0.6875 2.9375-3.2812c-0.2482-0.22104-0.5044-0.43234-0.75-0.65625zm113.72 0.0937c-0.251 0.22809-0.4961 0.46241-0.75 0.6875l2.8438 3.1562 0.75-0.6875zm-106.91 5.5-2.5625 3.5312 0.8125 0.59375 2.5625-3.5312c-0.2716-0.19534-0.5433-0.39528-0.8125-0.59375zm100.06 0.0937c-0.2696 0.19791-0.5404 0.39898-0.8125 0.59375l2.5 3.4375 0.8125-0.59375zm-92.656 4.7812-2.1874 3.7812 0.8437 0.5 2.1875-3.8125c-0.28-0.15998-0.5658-0.30567-0.8438-0.46875zm85.25 0.0625c-0.2828 0.16517-0.5588 0.33803-0.8437 0.5l2.125 3.7188 0.875-0.5zm-77.437 4-1.75 3.9688 0.9062 0.40625 1.7812-3.9688c-0.3132-0.13766-0.6262-0.26491-0.9374-0.40625zm69.625 0.0937c-0.3079 0.13886-0.6278 0.27098-0.9376 0.40625l1.7188 3.875 0.9375-0.40625zm-61.375 3.125-1.3438 4.1562 0.9375 0.3125 1.3437-4.1562c-0.3141-0.10014-0.625-0.2088-0.9374-0.3125zm53.094 0.0625c-0.3222 0.10608-0.6448 0.2102-0.9687 0.3125l1.3437 4.0938 0.9687-0.3125zm-44.594 2.25-0.90627 4.25 0.99997 0.21875 0.9063-4.25c-0.3338-0.0688-0.6678-0.14601-1-0.21875zm36.062 0.0625c-0.3265 0.0705-0.6408 0.15204-0.9687 0.21875l0.9063 4.1875 0.9687-0.21875zm-27.312 1.375-0.4688 4.3438 1 0.0937 0.4375-4.3125c-0.3249-0.0321-0.6449-0.0892-0.9687-0.125zm18.594 0.0313c-0.323 0.035-0.6447 0.0624-0.9687 0.0937l0.4374 4.3125 0.9688-0.0937z" color="#000000" fill="#e3e3ff" opacity=".35" style="text-decoration-line:none;text-indent:0;text-transform:none"/>
    </g>
    <g id="g5157" transform="translate(-283.73 123.31)">
     <g id="text5153" transform="translate(0,6)" fill="#3daee9">
      <path id="path6197" d="m1306.9 363.07c2.7474 3e-5 4.9479 0.72268 6.6015 2.168 1.6667 1.4323 2.5 3.392 2.5 5.8789 0 1.6927-0.4362 3.2878-1.3086 4.7852-0.8724 1.4844-2.2135 3.1966-4.0234 5.1367l-8.2617 8.8086h13.027v3.0078h-16.445v-3.6914l9.3945-10.684c1.2761-1.4583 2.2331-2.7278 2.8711-3.8086 0.6511-1.0937 0.9766-2.1745 0.9766-3.2422 0-1.6666-0.4753-2.9362-1.4258-3.8086-0.9505-0.87237-2.2851-1.3086-4.0039-1.3086-2.5521 2e-5 -4.6419 0.82033-6.2695 2.4609l-1.1328-3.0664c1.914-1.7578 4.414-2.6367 7.5-2.6367m-14.88 1.2305h3.4961v28.555h-3.4961v-25.293c-1.6015 1.0677-3.1966 1.9596-4.7851 2.6758v-3.0664c1.25-0.54685 2.845-1.5039 4.7851-2.8711" fill="#FF578B"/>
     </g>
    </g>
    <rect id="rect5442" x="927.37" y="578.96" width="20" height="2.709" fill="#FF578B"/>
    <rect id="rect5446" x="1088.6" y="578.96" width="20" height="2.709" fill="#FF578B"/>
    <rect id="rect5448" transform="rotate(90)" x="651.61" y="-1019.2" width="20" height="2.709" fill="#FF578B"/>
    <g id="g6073" transform="translate(-.5085 -.41219)" fill="#e3e3ff">
     <path id="path6063" d="m1090.3 537.58 4.0274-2.3252 1.3545 2.3461-4.0274 2.3252zm-149.43 86.276 4.0273-2.3252 1.3545 2.3461-4.0273 2.3252z"/>
     <path id="path6065" d="m1059.1 507.34 2.3252-4.0274 2.3461 1.3545-2.3252 4.0274zm-86.276 149.43 2.3252-4.0273 2.3461 1.3545-2.3252 4.0273z"/>
     <path id="path6067" d="m944.9 539.92-4.0274-2.3252 1.3545-2.3461 4.0274 2.3252zm149.43 86.276-4.0273-2.3252 1.3545-2.3461 4.0273 2.3253z"/>
     <path id="path6069" d="m975.13 508.7-2.3252-4.0274 2.3461-1.3545 2.3252 4.0274zm86.276 149.43-2.3251-4.0273 2.3461-1.3546 2.3251 4.0274z"/>
    </g>
   </g>
  </g>
 </g>
 <g id="HourHand" transform="matrix(-.60001 -.79999 .79999 -.60001 185.53 1262.7)">
  <rect id="rect56" transform="matrix(-.60001 .79999 -.79999 -.60001 1122.7 607.62)" x="33" y="91" width="18" height="64" fill="#23232F" fill-opacity=".60392" opacity=".02"/>
  <path id="path58" d="m980.52 549.89-5.9548-0.74154 2.5212 5.5089 0.0361-0.0506 34.481 25.905 3.4218-4.6985-34.481-25.905z" fill="#e3e3ff"/>
  <path id="path60" transform="translate(-753.93 199.18)" d="m1777.9 382.03a6.4995 6.4995 0 0 1-6.4994 6.4994 6.4995 6.4995 0 0 1-6.4995-6.4994 6.4995 6.4995 0 0 1 6.4995-6.4995 6.4995 6.4995 0 0 1 6.4994 6.4995z" fill="#e3e3ff"/>
 </g>
 <g id="MinuteHand" transform="matrix(-.5033 .86411 -.86411 -.5033 1082.4 -486.66)">
  <rect id="rect63" transform="matrix(-.5033 -.86411 .86411 -.5033 966.28 692.06)" x="64" y="94" width="12" height="85" fill="#23232F" fill-opacity=".60392" opacity=".02"/>
  <path id="path65" transform="matrix(.86427 -.50302 .50302 .86427 0 0)" d="m588.17 1012.6 75.736 7e-4v3l-75.736-7e-4z" fill="#999999"/>
  <path id="path67" transform="matrix(.56475 0 0 .56475 17.104 365.5)" d="m1777.9 382.03a6.4995 6.4995 0 0 1-6.4994 6.4994 6.4995 6.4995 0 0 1-6.4995-6.4994 6.4995 6.4995 0 0 1 6.4995-6.4995 6.4995 6.4995 0 0 1 6.4994 6.4995z" fill="#999999"/>
 </g>
 <g id="SecondHand" transform="matrix(-.50062 .86567 -.86567 -.50062 1138.5 -489.72)">
  <rect id="rect70" transform="matrix(.86603 -.5 .5 .86603 0 0)" x="589.81" y="1011.2" width="77.736" height="1.7322" fill="#f67400"/>
  <path id="path72" transform="matrix(.29783 0 0 .29783 489.81 467.45)" d="m1777.9 382.03c0 3.5896-2.9099 6.4994-6.4994 6.4994-3.5896 0-6.4995-2.9099-6.4995-6.4994s2.9099-6.4995 6.4995-6.4995c3.5895 0 6.4994 2.9099 6.4994 6.4995z" fill="#f67400"/>
  <rect id="rect74" transform="matrix(-.50062 -.86567 .86567 -.50062 985.87 726.55)" x="106" y="96" width="8" height="7" fill="#23232F" fill-opacity=".60392" opacity=".02"/>
 </g>
 <g id="g91" fill="#23232F">
  <g id="SecondHandShadow" transform="matrix(-.50062 .86567 -.86567 -.50062 1146.5 -489.72)" opacity="0">
   <path id="path77" transform="matrix(.86603 -.5 .5 .86603 0 0)" d="m591.81 1011.2h75.736v1.7321h-75.736z"/>
   <circle id="circle79" transform="matrix(.29783 0 0 .29783 489.81 467.45)" fill-opacity=".005"/>
   <rect id="rect81" transform="matrix(-.50062 -.86567 .86567 -.50062 988.88 731.74)" x="113" y="97" width="6" height="82" fill-opacity=".60392" opacity=".02"/>
  </g>
  <path id="HandCenterScrew" d="m-45 100a5 5 0 1 1-10 0 5 5 0 1 1 10 0z" opacity=".005"/>
  <path id="Glass" transform="matrix(1.5739 0 0 1.5739 111.91 -57.392)" d="m-150 100a45 45 0 1 1-90 0 45 45 0 1 1 90 0z" opacity=".005"/>
  <g id="MinuteHandShadow" transform="matrix(-.5033 .86411 -.86411 -.5033 1092.4 -486.66)" opacity="0">
   <path id="path86" d="m1016.7 579.91 66.473-38.689 1.509 2.5928-66.473 38.689z"/>
   <circle id="circle88" transform="matrix(.62496 0 0 .62496 -89.662 342.48)" fill-opacity=".005"/>
  </g>
 </g>
 <g id="HourHandShadow" transform="rotate(233.13 416.29 581.26)" fill="#23232F" opacity="0">
  <rect id="rect93" transform="rotate(126.87 409.43 584.47)" x="33" y="91" width="18" height="64" fill-opacity=".60392" opacity=".02"/>
  <path id="path95" d="m980.52 549.89-5.9548-0.74154 2.5212 5.5089 0.0361-0.0506 34.481 25.905 3.4218-4.6985-34.481-25.905z"/>
  <circle id="circle97" transform="translate(-753.93 199.18)" cx="1771.4" cy="382.03" r="6.4995"/>
 </g>
</svg>
