<?xml version="1.0" encoding="UTF-8" standalone="no"?>
<svg class="canvas" viewBox="0 0 1920 1080" preserveAspectRatio="xMaxYMid slice" version="1.1" id="svg55" sodipodi:docname="wp.svg" inkscape:version="1.2.2 (b0a8486541, 2022-12-01)" inkscape:export-filename="wp.png" inkscape:export-xdpi="96" inkscape:export-ydpi="96" xmlns:inkscape="http://www.inkscape.org/namespaces/inkscape" xmlns:sodipodi="http://sodipodi.sourceforge.net/DTD/sodipodi-0.dtd" xmlns="http://www.w3.org/2000/svg" xmlns:svg="http://www.w3.org/2000/svg">
 <sodipodi:namedview id="namedview57" pagecolor="#e3e3ff" bordercolor="#000000" borderopacity="0.25" inkscape:showpageshadow="2" inkscape:pageopacity="0.0" inkscape:pagecheckerboard="0" inkscape:deskcolor="#d1d1d1" showgrid="false" inkscape:zoom="0.34166667" inkscape:cx="621.95122" inkscape:cy="639.51219" inkscape:window-width="1920" inkscape:window-height="1020" inkscape:window-x="0" inkscape:window-y="0" inkscape:window-maximized="1" inkscape:current-layer="svg55"/>
 <rect width="1920" height="1080" fill="hsl(161, 65%, 15%)" id="rect2" style="fill:#101017;fill-opacity:1"/>
 <defs id="defs39">
  <linearGradient x1="0.5" y1="0" x2="0" y2="1" id="SvgjsLinearGradient1175">
   <stop stop-color="#288a7f" offset="0" id="stop4" style="stop-color:#10101f;stop-opacity:1;"/>
   <stop stop-color="#060714" offset="0.1" id="stop6"/>
  </linearGradient>
  <linearGradient x1="1391.3776" y1="-271.67099" x2="775.36871" y2="1470.4612" id="SvgjsLinearGradient1176" gradientTransform="matrix(1.1347061,0,0,0.88128544,0,-16)" gradientUnits="userSpaceOnUse">
   <stop stop-color="#28828a" offset="0" id="stop9" style="stop-color:#73a9ff;stop-opacity:1;"/>
   <stop stop-color="#070614" offset="0.26194015" id="stop11" style="stop-color:#101017;stop-opacity:1;"/>
  </linearGradient>
  <linearGradient x1="0.5" y1="0" x2="0" y2="1" id="SvgjsLinearGradient1177">
   <stop stop-color="#28828a" offset="0" id="stop14" style="stop-color:#0e6aff;stop-opacity:1;"/>
   <stop stop-color="#070614" offset="0.24810033" id="stop16" style="stop-color:#101017;stop-opacity:1;"/>
  </linearGradient>
  <linearGradient x1="669.54669" y1="-177.39597" x2="0" y2="1345.5044" id="SvgjsLinearGradient1178" gradientTransform="scale(1.2458374,0.80267297)" gradientUnits="userSpaceOnUse">
   <stop stop-color="#c0f2e2" offset="0" id="stop19" style="stop-color:#dbe9ff;stop-opacity:1;"/>
   <stop stop-color="#4271d7" offset="0.48571429" id="stop21" style="stop-color:#0f6bff;stop-opacity:1;"/>
  </linearGradient>
  <linearGradient x1="535.58508" y1="-273.30319" x2="0" y2="1392.851" id="SvgjsLinearGradient1179" gradientTransform="scale(1.2896769,0.77538803)" gradientUnits="userSpaceOnUse">
   <stop stop-color="#c0e4f2" offset="0" id="stop24" style="stop-color:#c0daf2;stop-opacity:1;"/>
   <stop stop-color="#6c42d7" offset="0.79779637" id="stop26" style="stop-color:#ff568e;stop-opacity:1;"/>
  </linearGradient>
  <linearGradient x1="0.5" y1="0" x2="0" y2="1" id="SvgjsLinearGradient1180">
   <stop stop-color="#c0f2ec" offset="0" id="stop29" style="stop-color:#dbe9ff;stop-opacity:1;"/>
   <stop stop-color="#4253d7" offset="0.74285716" id="stop31" style="stop-color:#0f6cff;stop-opacity:1;"/>
  </linearGradient>
  <linearGradient x1="0.5" y1="0" x2="0" y2="1" id="SvgjsLinearGradient1181">
   <stop stop-color="#c0daf2" offset="0" id="stop34"/>
   <stop stop-color="#8a42d7" offset="0.87142855" id="stop36" style="stop-color:#ff568e;stop-opacity:1;"/>
  </linearGradient>
 </defs>
 <path d="M 0,0 H 1920 V 1064 H 0 Z" fill="url(&quot;#SvgjsLinearGradient1176&quot;)" id="path43" style="fill:url(#SvgjsLinearGradient1176)" sodipodi:nodetypes="ccccc"/>
 <path d="M0,-266.7156986445042C51.6394634164665,-254.5793944045486,205.06841448292886,-230.44442825373483,309.836780498799,-193.8978732047706C414.6051465146691,-157.35131815580638,519.8478781965867,-81.23555199233836,628.6101960952209,-47.436368350718915C737.372513993855,-13.637184709099472,857.5032753112071,-17.80847089792207,962.4106878906035,8.897228644946058C1067.31810047,35.602928187814186,1155.6396827785345,80.21209384539085,1258.0546715715993,112.79782890648985C1360.4696603646642,145.38356396758886,1466.5763992442594,172.9019888414677,1576.9006206489928,204.41163901154013C1687.2248420537262,235.92128918161256,1862.8167701081654,285.6150481076937,1920,301.8557299269244L 1920 1080 L 0 1080 Z" fill="url(&quot;#SvgjsLinearGradient1177&quot;)" id="path45"/>
 <path d="M0,-157.02509691800623C44.16600167738721,-136.60418287701629,179.59550109197704,-56.716601897490406,264.99601006432323,-34.49961267206662C350.3965190366694,-12.282623446642834,415.7452574655302,-50.74154393708807,512.403053834077,-23.723161565463528C609.0608502026238,3.2952208061610158,743.3919158455567,88.71980642674873,844.942788275604,127.61068155768065C946.4936607056513,166.50155668861257,1038.6084785459736,185.9273595840026,1121.7082884143613,209.62208922012798C1204.808098282749,233.31681885625335,1255.680848005743,254.45336765256184,1343.5416474859303,269.7790593744329C1431.4024469661176,285.10475109630397,1552.7966932098063,275.56740845723715,1648.8730852954845,301.57623955135443C1744.9494773811628,327.5850706454717,1874.8121808825808,405.1227448745063,1920,425.83204593913666L 1920 1080 L 0 1080 Z" fill="url(&quot;#SvgjsLinearGradient1178&quot;)" id="path47" style="fill:url(#SvgjsLinearGradient1178)"/>
 <path d="M0,-74.35505554280098C72.1917874963619,-57.71768443612693,299.4878278965686,-23.30451743742252,433.1507249781714,25.469171097243326C566.8136220597742,74.24285963190917,675.699196466714,182.52902646021568,801.9773824896168,218.2870756651941C928.2555685125196,254.04512487017251,1074.9418458441899,204.59792506891617,1190.8198411155881,240.01746632711388C1306.6978363869864,275.4370075853116,1375.715327637271,383.67593400222336,1497.2453541180064,430.8043232143804C1618.7753805987418,477.9327124265375,1849.540892353001,507.4572218691103,1920,522.7878016000562L 1920 1080 L 0 1080 Z" fill="url(&quot;#SvgjsLinearGradient1179&quot;)" id="path49" style="fill:url(#SvgjsLinearGradient1179)"/>
 <path d="M0,87.55120353557473C43.945612160219326,106.30584707586382,179.80617038523224,164.00953921543925,263.67367296131596,200.07906477730933C347.5411755373997,236.1485903391794,402.8281347916818,271.79607537619955,503.2050154565022,303.9683569067951C603.5818961213226,336.1406384373907,761.8814306189413,375.1151627315353,865.9349569502384,393.11275396088286C969.9884832815355,411.1103451902304,1049.2503724303851,384.74753414366796,1127.5261734442847,411.9539042828806C1205.8019744581843,439.16027442209327,1248.1318690769817,527.023036371474,1335.5897630336353,556.3509747961588C1423.047656990289,585.6789132208436,1554.871831023145,564.1500681363251,1652.2735371842057,587.9215348309897C1749.6752433452664,611.6930015256543,1875.3789228640344,680.4700682752867,1920,698.9797749641461L 1920 1080 L 0 1080 Z" fill="url(&quot;#SvgjsLinearGradient1180&quot;)" id="path51"/>
 <path d="M0,249.57629641060095C40.54291110268246,265.63557791751396,155.5166436200327,311.5694263471215,243.25746661609475,345.93198545207883C330.9982896121568,380.29454455703615,430.53960902728994,430.6276155067465,526.4449379763723,455.7516510403447C622.3502669254547,480.8756865739429,725.8990691686979,469.77262790426755,818.6894403105889,496.6761986536681C911.4798114524799,523.5797694030687,992.2697924486739,585.9240537809459,1083.1871648277186,617.1730755367481C1174.1045372067633,648.4220972925503,1267.9849306666297,661.2331883827792,1364.193674584857,684.1703291884812C1460.4024185030844,707.1074699941832,1567.805240767892,722.9425448815592,1660.4396283370825,754.7959203709602C1753.074015906273,786.6492958603611,1876.7399380561803,855.2081384992323,1920,875.2905821248868L 1920 1080 L 0 1080 Z" fill="url(&quot;#SvgjsLinearGradient1181&quot;)" id="path53"/>
</svg>
