<svg id="svg226" width="121" height="56" version="1.1" viewBox="0 0 121 56" xmlns="http://www.w3.org/2000/svg" xmlns:cc="http://creativecommons.org/ns#" xmlns:dc="http://purl.org/dc/elements/1.1/" xmlns:rdf="http://www.w3.org/1999/02/22-rdf-syntax-ns#" xmlns:xlink="http://www.w3.org/1999/xlink">
 <metadata id="metadata230">
  <rdf:RDF>
   <cc:Work rdf:about="">
    <dc:format>image/svg+xml</dc:format>
    <dc:type rdf:resource="http://purl.org/dc/dcmitype/StillImage"/>
   </cc:Work>
  </rdf:RDF>
 </metadata>
 <defs id="defs39">
  <style id="current-color-scheme" type="text/css">.ColorScheme-Text {
        color:#23232F;
        stop-color:#23232F;
      }
      .ColorScheme-Background {
        color:#e4e6e8;
        stop-color:#e4e6e8;
      }
      .ColorScheme-Highlight {
        color:#3daee9;
        stop-color:#3daee9;
      }
      .ColorScheme-ViewText {
        color:#23232F;
        stop-color:#23232F;
      }
      .ColorScheme-ViewBackground {
        color:#fafafa;
        stop-color:#fafafa;
      }
      .ColorScheme-ViewHover {
        color:#93cee9;
        stop-color:#93cee9;
      }
      .ColorScheme-ViewFocus{
        color:#3daee9;
        stop-color:#3daee9;
      }
      .ColorScheme-ButtonText {
        color:#23232F;
        stop-color:#23232F;
      }
      .ColorScheme-ButtonBackground {
        color:#e4e6e8;
        stop-color:#e4e6e8;
      }
      .ColorScheme-ButtonHover {
        color:#93cee9;
        stop-color:#93cee9;
      }
      .ColorScheme-ButtonFocus{
        color:#3daee9;
        stop-color:#3daee9;
      }</style>
  <linearGradient id="a">
   <stop id="stop16" offset="0"/>
   <stop id="stop18" stop-opacity="0" offset="1"/>
  </linearGradient>
  <linearGradient id="linearGradient1037" x1="-916.36" x2="-905.36" y1="-35" y2="-35" gradientUnits="userSpaceOnUse" xlink:href="#a"/>
  <linearGradient id="linearGradient1043" x1="948.36" x2="959.36" y1="-35" y2="-35" gradientUnits="userSpaceOnUse" xlink:href="#a"/>
  <linearGradient id="linearGradient1045" x1="-19" x2="-8" y1="932.36" y2="932.36" gradientUnits="userSpaceOnUse" xlink:href="#a"/>
  <linearGradient id="linearGradient1047" x1="51" x2="62" y1="932.36" y2="932.36" gradientUnits="userSpaceOnUse" xlink:href="#a"/>
  <radialGradient id="radialGradient1374" cx="77" cy="12" r="6" gradientTransform="matrix(-3.5114e-7 -1.8333 1.8333 -3.5114e-7 55 153.17)" gradientUnits="userSpaceOnUse" xlink:href="#a"/>
  <radialGradient id="radialGradient1025" cx="19" cy="12" r="6" gradientTransform="matrix(2.5e-7 -1.8333 1.8333 2.5e-7 -3 46.833)" gradientUnits="userSpaceOnUse" xlink:href="#a"/>
 </defs>
 <rect id="hint-tile-center" y="-1.4648e-5" width="5" height="5" fill="#f60"/>
 <g id="shadow-top" transform="translate(58,-904.36)">
  <rect id="rect117" transform="matrix(0,-1,-1,0,0,0)" x="-916.36" y="-51" width="6" height="32" fill="none"/>
  <rect id="rect119" transform="matrix(0,-1,-1,0,0,0)" x="-910.36" y="-51" width="6" height="32" fill="url(#linearGradient1037)" opacity=".35"/>
  <rect id="rect121" transform="matrix(0,-1,-1,0,0,0)" x="-911.36" y="-51" width=".99998" height="32" fill="none"/>
 </g>
 <g id="shadow-bottom" transform="translate(58,-904.36)">
  <rect id="rect158" transform="rotate(90)" x="948.36" y="-51" width="6" height="32" fill="none"/>
  <rect id="rect160" transform="rotate(90)" x="954.36" y="-51" width="6" height="32" fill="url(#linearGradient1043)" opacity=".35"/>
  <rect id="rect162" transform="rotate(90)" x="953.36" y="-51" width="1" height="32" fill="none"/>
 </g>
 <g id="shadow-left" transform="translate(58,-904.36)">
  <rect id="rect199" transform="scale(-1,1)" x="-19" y="916.36" width="6" height="32" fill="none"/>
  <rect id="rect201" transform="scale(-1,1)" x="-13" y="916.36" width="6" height="32" fill="url(#linearGradient1045)" opacity=".35"/>
  <rect id="rect203" transform="scale(-1,1)" x="-14" y="916.36" width="1" height="32" fill="none"/>
 </g>
 <g id="shadow-right" transform="translate(58,-904.36)">
  <rect id="rect206" x="51" y="916.36" width="6" height="32" fill="none"/>
  <rect id="rect208" x="57" y="916.36" width="6" height="32" fill="url(#linearGradient1047)" opacity=".35"/>
  <rect id="rect210" x="56" y="916.36" width="1" height="32" fill="none"/>
 </g>
 <g id="shadow-center" transform="translate(58,-904.36)" fill="none" opacity="0">
  <rect id="rect213" x="19" y="916.36" width="32" height="32"/>
  <rect id="rect215" x="19" y="916.36" width="32" height="32"/>
 </g>
 <rect id="shadow-hint-top-margin" x="91" y="-1.4648e-5" width="4" height="12" fill="#f0f"/>
 <rect id="shadow-hint-bottom-margin" x="91" y="44" width="4" height="12" fill="#f0f"/>
 <rect id="shadow-hint-right-margin" transform="rotate(90)" x="26" y="-121" width="4" height="12" fill="#f0f"/>
 <rect id="shadow-hint-left-margin" transform="rotate(90)" x="26" y="-77" width="4" height="12" fill="#f0f"/>
 <g id="shadow-topleft" transform="translate(58 -904.36)">
  <path id="path4828" transform="translate(-58 904.36)" d="m65 0v12h6c0-3.324 2.676-6 6-6v-6z" fill="url(#radialGradient1374)" fill-rule="evenodd" opacity=".35"/>
  <rect id="rect4834" transform="scale(-1,1)" x="-19" y="910.36" width="6" height="6" ry=".99998" fill="none"/>
  <rect id="rect4836" transform="scale(-1,1)" x="-19" y="910.36" width="2" height="6" ry="0" fill="none"/>
  <rect id="rect4838" transform="scale(-1,1)" x="-18" y="914.36" width="5" height="2" fill="none"/>
 </g>
 <use id="use1035" transform="rotate(90 93 28)" width="100%" height="100%" xlink:href="#shadow-topleft"/>
 <use id="shadow-bottomleft" transform="matrix(1 0 0 -1 -7e-6 56)" width="100%" height="100%" xlink:href="#shadow-topleft"/>
 <use id="shadow-bottomright" transform="rotate(180 93 28)" width="100%" height="100%" xlink:href="#shadow-topleft"/>
 <g id="top" transform="translate(4e-6,-904.36)">
  <rect id="rect42" class="ColorScheme-Background" transform="matrix(0,-1,-1,0,0,0)" x="-916.36" y="-51" width="6" height="32" color="#e4e6e8" fill="#23232F" opacity=".94"/>
  <rect id="rect44" transform="matrix(0,-1,-1,0,0,0)" x="-910.36" y="-51" width="6" height="32" fill="url(#linearGradient1037)" opacity=".35"/>
 </g>
 <g id="topleft" transform="translate(4e-6,-904.36)">
  <g id="g53" fill-rule="evenodd">
   <path id="path47" transform="translate(0,904.36)" d="m7 0v12h6c0-3.324 2.676-6 6-6v-6z" fill="url(#radialGradient1025)" opacity=".35"/>
  </g>
  <path id="path55" transform="translate(0,904.36)" d="m19 6c-3.324 0-6 2.676-6 6h6v-5z" color="#e4e6e8" fill="#23232F" opacity=".94"/>
 </g>
 <g id="bottom" transform="translate(4e-6,-904.36)">
  <rect id="rect69" class="ColorScheme-Background" transform="rotate(90)" x="948.36" y="-51" width="6" height="32" color="#e4e6e8" fill="#23232F" opacity=".94"/>
  <rect id="rect71" transform="rotate(90)" x="954.36" y="-51" width="6" height="32" fill="url(#linearGradient1043)" opacity=".35"/>
 </g>
 <g id="left" transform="translate(4e-6,-904.36)">
  <rect id="rect96" class="ColorScheme-Background" transform="scale(-1,1)" x="-19" y="916.36" width="6" height="32" color="#e4e6e8" fill="#23232F" opacity=".94"/>
  <rect id="rect98" transform="scale(-1,1)" x="-13" y="916.36" width="6" height="32" fill="url(#linearGradient1045)" opacity=".35"/>
 </g>
 <g id="right" transform="translate(4e-6,-904.36)">
  <rect id="rect101" class="ColorScheme-Background" x="51" y="916.36" width="6" height="32" color="#e4e6e8" fill="#23232F" opacity=".94"/>
  <rect id="rect103" x="57" y="916.36" width="6" height="32" fill="url(#linearGradient1047)" opacity=".35"/>
 </g>
 <g id="center" transform="translate(4e-6,-904.36)">
  <rect id="rect106" x="19" y="916.36" width="32" height="32" fill="none"/>
  <rect id="rect108" class="ColorScheme-Background" x="19" y="916.36" width="32" height="32" color="#e4e6e8" fill="#23232F" opacity=".94"/>
 </g>
 <rect id="hint-top-margin" x="33" y="-1.0352e-5" width="4" height="12" fill="#f0f"/>
 <rect id="hint-bottom-margin" x="33" y="44" width="4" height="12" fill="#f0f"/>
 <rect id="hint-right-margin" transform="rotate(90)" x="26" y="-63" width="4" height="12" fill="#f0f"/>
 <rect id="hint-left-margin" transform="rotate(90)" x="26" y="-19" width="4" height="12" fill="#f0f"/>
 <use id="topright" transform="matrix(-1 0 0 1 70 0)" width="100%" height="100%" xlink:href="#topleft"/>
 <use id="bottomleft" transform="rotate(-90 35 28)" width="100%" height="100%" xlink:href="#topleft"/>
 <use id="bottomright" transform="rotate(180 35 28)" width="100%" height="100%" xlink:href="#topleft"/>
</svg>
