<svg id="svg138" width="514" height="514" version="1" xmlns="http://www.w3.org/2000/svg" xmlns:cc="http://creativecommons.org/ns#" xmlns:dc="http://purl.org/dc/elements/1.1/" xmlns:rdf="http://www.w3.org/1999/02/22-rdf-syntax-ns#">
 <g id="black-notes" transform="translate(-1703,-29)">
  <rect id="rect2" x="1703" y="29" width="514" height="514" opacity=".005"/>
  <path id="path4" d="m1748.2 35c-21.727 0-39.219 17.492-39.219 39.219v423.56c0 21.727 17.492 39.219 39.219 39.219h423.56c21.727 0 39.219-17.492 39.219-39.219v-423.56c0-21.727-17.492-39.219-39.219-39.219h-407.88z" opacity=".02"/>
  <path id="path6" d="m1747.4 34c-21.814 0-39.375 17.561-39.375 39.375v425.25c0 21.814 17.561 39.375 39.375 39.375h425.25c21.814 0 39.375-17.561 39.375-39.375v-425.25c0-21.814-17.561-39.375-39.375-39.375h-409.5z" opacity=".02"/>
  <path id="path8" d="m1746.5 33c-21.9 0-39.531 17.631-39.531 39.531v426.94c0 21.9 17.631 39.531 39.531 39.531h426.94c21.9 0 39.531-17.631 39.531-39.531v-426.94c0-21.9-17.631-39.531-39.531-39.531h-411.12z" opacity=".02"/>
  <path id="path10" d="m1745.7 32c-21.987 0-39.688 17.701-39.688 39.687v428.62c0 21.987 17.701 39.688 39.688 39.688h428.62c21.987 0 39.688-17.701 39.688-39.688v-428.62c0-21.987-17.701-39.687-39.688-39.687h-412.75z" opacity=".02"/>
  <path id="path12" d="m1744.8 31c-22.074 0-39.844 17.77-39.844 39.844v430.31c0 22.073 17.77 39.844 39.844 39.844h430.31c22.074 0 39.844-17.77 39.844-39.844v-430.31c0-22.073-17.77-39.844-39.844-39.844h-414.38z" opacity=".02"/>
  <path id="path14" d="m1744 30c-22.16 0-40 17.84-40 40v432c0 22.16 17.84 40 40 40h432c22.16 0 40-17.84 40-40v-432c0-22.16-17.84-40-40-40h-416z" opacity=".02"/>
  <path id="path16" d="m1749.1 30c-21.641 0-39.062 17.422-39.062 39.062v421.87c0 21.641 17.422 39.062 39.062 39.062h421.88c21.641 0 39.062-17.422 39.062-39.062v-421.87c0-21.641-17.422-39.062-39.062-39.062h-406.25z" fill="#23232F"/>
 </g>
 <g id="white-notes" transform="translate(-1189,-29)">
  <rect id="rect19" x="1703" y="29" width="514" height="514" opacity=".005"/>
  <path id="path21" d="m1748.2 35c-21.727 0-39.219 17.492-39.219 39.219v423.56c0 21.727 17.492 39.219 39.219 39.219h423.56c21.727 0 39.219-17.492 39.219-39.219v-423.56c0-21.727-17.492-39.219-39.219-39.219h-407.88z" opacity=".02"/>
  <path id="path23" d="m1747.4 34c-21.814 0-39.375 17.561-39.375 39.375v425.25c0 21.814 17.561 39.375 39.375 39.375h425.25c21.814 0 39.375-17.561 39.375-39.375v-425.25c0-21.814-17.561-39.375-39.375-39.375h-409.5z" opacity=".02"/>
  <path id="path25" d="m1746.5 33c-21.9 0-39.531 17.631-39.531 39.531v426.94c0 21.9 17.631 39.531 39.531 39.531h426.94c21.9 0 39.531-17.631 39.531-39.531v-426.94c0-21.9-17.631-39.531-39.531-39.531h-411.12z" opacity=".02"/>
  <path id="path27" d="m1745.7 32c-21.987 0-39.688 17.701-39.688 39.687v428.62c0 21.987 17.701 39.688 39.688 39.688h428.62c21.987 0 39.688-17.701 39.688-39.688v-428.62c0-21.987-17.701-39.687-39.688-39.687h-412.75z" opacity=".02"/>
  <path id="path29" d="m1744.8 31c-22.074 0-39.844 17.77-39.844 39.844v430.31c0 22.073 17.77 39.844 39.844 39.844h430.31c22.074 0 39.844-17.77 39.844-39.844v-430.31c0-22.073-17.77-39.844-39.844-39.844h-414.38z" opacity=".02"/>
  <path id="path31" d="m1744 30c-22.16 0-40 17.84-40 40v432c0 22.16 17.84 40 40 40h432c22.16 0 40-17.84 40-40v-432c0-22.16-17.84-40-40-40h-416z" opacity=".02"/>
  <path id="path33" d="m1749.1 30c-21.641 0-39.062 17.422-39.062 39.062v421.87c0 21.641 17.422 39.062 39.062 39.062h421.88c21.641 0 39.062-17.422 39.062-39.062v-421.87c0-21.641-17.422-39.062-39.062-39.062h-406.25z" fill="#e4e6e8"/>
 </g>
 <g id="yellow-notes" transform="translate(-675 -29)">
  <rect id="rect36" x="1703" y="29" width="514" height="514" opacity=".005"/>
  <path id="path38" d="m1748.2 35c-21.727 0-39.219 17.492-39.219 39.219v423.56c0 21.727 17.492 39.219 39.219 39.219h423.56c21.727 0 39.219-17.492 39.219-39.219v-423.56c0-21.727-17.492-39.219-39.219-39.219h-407.88z" opacity=".02"/>
  <path id="path40" d="m1747.4 34c-21.814 0-39.375 17.561-39.375 39.375v425.25c0 21.814 17.561 39.375 39.375 39.375h425.25c21.814 0 39.375-17.561 39.375-39.375v-425.25c0-21.814-17.561-39.375-39.375-39.375h-409.5z" opacity=".02"/>
  <path id="path42" d="m1746.5 33c-21.9 0-39.531 17.631-39.531 39.531v426.94c0 21.9 17.631 39.531 39.531 39.531h426.94c21.9 0 39.531-17.631 39.531-39.531v-426.94c0-21.9-17.631-39.531-39.531-39.531h-411.12z" opacity=".02"/>
  <path id="path44" d="m1745.7 32c-21.987 0-39.688 17.701-39.688 39.687v428.62c0 21.987 17.701 39.688 39.688 39.688h428.62c21.987 0 39.688-17.701 39.688-39.688v-428.62c0-21.987-17.701-39.687-39.688-39.687h-412.75z" opacity=".02"/>
  <path id="path46" d="m1744.8 31c-22.074 0-39.844 17.77-39.844 39.844v430.31c0 22.073 17.77 39.844 39.844 39.844h430.31c22.074 0 39.844-17.77 39.844-39.844v-430.31c0-22.073-17.77-39.844-39.844-39.844h-414.38z" opacity=".02"/>
  <path id="path48" d="m1744 30c-22.16 0-40 17.84-40 40v432c0 22.16 17.84 40 40 40h432c22.16 0 40-17.84 40-40v-432c0-22.16-17.84-40-40-40h-416z" opacity=".02"/>
  <path id="path50" d="m1749.1 30c-21.641 0-39.062 17.422-39.062 39.062v421.87c0 21.641 17.422 39.062 39.062 39.062h421.88c21.641 0 39.062-17.422 39.062-39.062v-421.87c0-21.641-17.422-39.062-39.062-39.062h-406.25z" fill="#ffca28"/>
 </g>
 <g id="red-notes" transform="translate(-161 -29)">
  <rect id="rect53" x="1703" y="29" width="514" height="514" opacity=".005"/>
  <path id="path55" d="m1748.2 35c-21.727 0-39.219 17.492-39.219 39.219v423.56c0 21.727 17.492 39.219 39.219 39.219h423.56c21.727 0 39.219-17.492 39.219-39.219v-423.56c0-21.727-17.492-39.219-39.219-39.219h-407.88z" opacity=".02"/>
  <path id="path57" d="m1747.4 34c-21.814 0-39.375 17.561-39.375 39.375v425.25c0 21.814 17.561 39.375 39.375 39.375h425.25c21.814 0 39.375-17.561 39.375-39.375v-425.25c0-21.814-17.561-39.375-39.375-39.375h-409.5z" opacity=".02"/>
  <path id="path59" d="m1746.5 33c-21.9 0-39.531 17.631-39.531 39.531v426.94c0 21.9 17.631 39.531 39.531 39.531h426.94c21.9 0 39.531-17.631 39.531-39.531v-426.94c0-21.9-17.631-39.531-39.531-39.531h-411.12z" opacity=".02"/>
  <path id="path61" d="m1745.7 32c-21.987 0-39.688 17.701-39.688 39.687v428.62c0 21.987 17.701 39.688 39.688 39.688h428.62c21.987 0 39.688-17.701 39.688-39.688v-428.62c0-21.987-17.701-39.687-39.688-39.687h-412.75z" opacity=".02"/>
  <path id="path63" d="m1744.8 31c-22.074 0-39.844 17.77-39.844 39.844v430.31c0 22.073 17.77 39.844 39.844 39.844h430.31c22.074 0 39.844-17.77 39.844-39.844v-430.31c0-22.073-17.77-39.844-39.844-39.844h-414.38z" opacity=".02"/>
  <path id="path65" d="m1744 30c-22.16 0-40 17.84-40 40v432c0 22.16 17.84 40 40 40h432c22.16 0 40-17.84 40-40v-432c0-22.16-17.84-40-40-40h-416z" opacity=".02"/>
  <path id="path67" d="m1749.1 30c-21.641 0-39.062 17.422-39.062 39.062v421.87c0 21.641 17.422 39.062 39.062 39.062h421.88c21.641 0 39.062-17.422 39.062-39.062v-421.87c0-21.641-17.422-39.062-39.062-39.062h-406.25z" fill="#ef5350"/>
 </g>
 <g id="orange-notes" transform="translate(353 -29)">
  <rect id="rect70" x="1703" y="29" width="514" height="514" opacity=".005"/>
  <path id="path72" d="m1748.2 35c-21.727 0-39.219 17.492-39.219 39.219v423.56c0 21.727 17.492 39.219 39.219 39.219h423.56c21.727 0 39.219-17.492 39.219-39.219v-423.56c0-21.727-17.492-39.219-39.219-39.219h-407.88z" opacity=".02"/>
  <path id="path74" d="m1747.4 34c-21.814 0-39.375 17.561-39.375 39.375v425.25c0 21.814 17.561 39.375 39.375 39.375h425.25c21.814 0 39.375-17.561 39.375-39.375v-425.25c0-21.814-17.561-39.375-39.375-39.375h-409.5z" opacity=".02"/>
  <path id="path76" d="m1746.5 33c-21.9 0-39.531 17.631-39.531 39.531v426.94c0 21.9 17.631 39.531 39.531 39.531h426.94c21.9 0 39.531-17.631 39.531-39.531v-426.94c0-21.9-17.631-39.531-39.531-39.531h-411.12z" opacity=".02"/>
  <path id="path78" d="m1745.7 32c-21.987 0-39.688 17.701-39.688 39.687v428.62c0 21.987 17.701 39.688 39.688 39.688h428.62c21.987 0 39.688-17.701 39.688-39.688v-428.62c0-21.987-17.701-39.687-39.688-39.687h-412.75z" opacity=".02"/>
  <path id="path80" d="m1744.8 31c-22.074 0-39.844 17.77-39.844 39.844v430.31c0 22.073 17.77 39.844 39.844 39.844h430.31c22.074 0 39.844-17.77 39.844-39.844v-430.31c0-22.073-17.77-39.844-39.844-39.844h-414.38z" opacity=".02"/>
  <path id="path82" d="m1744 30c-22.16 0-40 17.84-40 40v432c0 22.16 17.84 40 40 40h432c22.16 0 40-17.84 40-40v-432c0-22.16-17.84-40-40-40h-416z" opacity=".02"/>
  <path id="path84" d="m1749.1 30c-21.641 0-39.062 17.422-39.062 39.062v421.87c0 21.641 17.422 39.062 39.062 39.062h421.88c21.641 0 39.062-17.422 39.062-39.062v-421.87c0-21.641-17.422-39.062-39.062-39.062h-406.25z" fill="#ff9800"/>
 </g>
 <g id="green-notes" transform="translate(867 -29)">
  <rect id="rect87" x="1703" y="29" width="514" height="514" opacity=".005"/>
  <path id="path89" d="m1748.2 35c-21.727 0-39.219 17.492-39.219 39.219v423.56c0 21.727 17.492 39.219 39.219 39.219h423.56c21.727 0 39.219-17.492 39.219-39.219v-423.56c0-21.727-17.492-39.219-39.219-39.219h-407.88z" opacity=".02"/>
  <path id="path91" d="m1747.4 34c-21.814 0-39.375 17.561-39.375 39.375v425.25c0 21.814 17.561 39.375 39.375 39.375h425.25c21.814 0 39.375-17.561 39.375-39.375v-425.25c0-21.814-17.561-39.375-39.375-39.375h-409.5z" opacity=".02"/>
  <path id="path93" d="m1746.5 33c-21.9 0-39.531 17.631-39.531 39.531v426.94c0 21.9 17.631 39.531 39.531 39.531h426.94c21.9 0 39.531-17.631 39.531-39.531v-426.94c0-21.9-17.631-39.531-39.531-39.531h-411.12z" opacity=".02"/>
  <path id="path95" d="m1745.7 32c-21.987 0-39.688 17.701-39.688 39.687v428.62c0 21.987 17.701 39.688 39.688 39.688h428.62c21.987 0 39.688-17.701 39.688-39.688v-428.62c0-21.987-17.701-39.687-39.688-39.687h-412.75z" opacity=".02"/>
  <path id="path97" d="m1744.8 31c-22.074 0-39.844 17.77-39.844 39.844v430.31c0 22.073 17.77 39.844 39.844 39.844h430.31c22.074 0 39.844-17.77 39.844-39.844v-430.31c0-22.073-17.77-39.844-39.844-39.844h-414.38z" opacity=".02"/>
  <path id="path99" d="m1744 30c-22.16 0-40 17.84-40 40v432c0 22.16 17.84 40 40 40h432c22.16 0 40-17.84 40-40v-432c0-22.16-17.84-40-40-40h-416z" opacity=".02"/>
  <path id="path101" d="m1749.1 30c-21.641 0-39.062 17.422-39.062 39.062v421.87c0 21.641 17.422 39.062 39.062 39.062h421.88c21.641 0 39.062-17.422 39.062-39.062v-421.87c0-21.641-17.422-39.062-39.062-39.062h-406.25z" fill="#4caf50"/>
 </g>
 <g id="blue-notes" transform="translate(1381 -29)">
  <rect id="rect104" x="1703" y="29" width="514" height="514" opacity=".005"/>
  <path id="path106" d="m1748.2 35c-21.727 0-39.219 17.492-39.219 39.219v423.56c0 21.727 17.492 39.219 39.219 39.219h423.56c21.727 0 39.219-17.492 39.219-39.219v-423.56c0-21.727-17.492-39.219-39.219-39.219h-407.88z" opacity=".02"/>
  <path id="path108" d="m1747.4 34c-21.814 0-39.375 17.561-39.375 39.375v425.25c0 21.814 17.561 39.375 39.375 39.375h425.25c21.814 0 39.375-17.561 39.375-39.375v-425.25c0-21.814-17.561-39.375-39.375-39.375h-409.5z" opacity=".02"/>
  <path id="path110" d="m1746.5 33c-21.9 0-39.531 17.631-39.531 39.531v426.94c0 21.9 17.631 39.531 39.531 39.531h426.94c21.9 0 39.531-17.631 39.531-39.531v-426.94c0-21.9-17.631-39.531-39.531-39.531h-411.12z" opacity=".02"/>
  <path id="path112" d="m1745.7 32c-21.987 0-39.688 17.701-39.688 39.687v428.62c0 21.987 17.701 39.688 39.688 39.688h428.62c21.987 0 39.688-17.701 39.688-39.688v-428.62c0-21.987-17.701-39.687-39.688-39.687h-412.75z" opacity=".02"/>
  <path id="path114" d="m1744.8 31c-22.074 0-39.844 17.77-39.844 39.844v430.31c0 22.073 17.77 39.844 39.844 39.844h430.31c22.074 0 39.844-17.77 39.844-39.844v-430.31c0-22.073-17.77-39.844-39.844-39.844h-414.38z" opacity=".02"/>
  <path id="path116" d="m1744 30c-22.16 0-40 17.84-40 40v432c0 22.16 17.84 40 40 40h432c22.16 0 40-17.84 40-40v-432c0-22.16-17.84-40-40-40h-416z" opacity=".02"/>
  <path id="path118" d="m1749.1 30c-21.641 0-39.062 17.422-39.062 39.062v421.87c0 21.641 17.422 39.062 39.062 39.062h421.88c21.641 0 39.062-17.422 39.062-39.062v-421.87c0-21.641-17.422-39.062-39.062-39.062h-406.25z" fill="#FF578B"/>
 </g>
 <g id="pink-notes" transform="translate(1895 -29)">
  <rect id="rect121" x="1703" y="29" width="514" height="514" opacity=".005"/>
  <path id="path123" d="m1748.2 35c-21.727 0-39.219 17.492-39.219 39.219v423.56c0 21.727 17.492 39.219 39.219 39.219h423.56c21.727 0 39.219-17.492 39.219-39.219v-423.56c0-21.727-17.492-39.219-39.219-39.219h-407.88z" opacity=".02"/>
  <path id="path125" d="m1747.4 34c-21.814 0-39.375 17.561-39.375 39.375v425.25c0 21.814 17.561 39.375 39.375 39.375h425.25c21.814 0 39.375-17.561 39.375-39.375v-425.25c0-21.814-17.561-39.375-39.375-39.375h-409.5z" opacity=".02"/>
  <path id="path127" d="m1746.5 33c-21.9 0-39.531 17.631-39.531 39.531v426.94c0 21.9 17.631 39.531 39.531 39.531h426.94c21.9 0 39.531-17.631 39.531-39.531v-426.94c0-21.9-17.631-39.531-39.531-39.531h-411.12z" opacity=".02"/>
  <path id="path129" d="m1745.7 32c-21.987 0-39.688 17.701-39.688 39.687v428.62c0 21.987 17.701 39.688 39.688 39.688h428.62c21.987 0 39.688-17.701 39.688-39.688v-428.62c0-21.987-17.701-39.687-39.688-39.687h-412.75z" opacity=".02"/>
  <path id="path131" d="m1744.8 31c-22.074 0-39.844 17.77-39.844 39.844v430.31c0 22.073 17.77 39.844 39.844 39.844h430.31c22.074 0 39.844-17.77 39.844-39.844v-430.31c0-22.073-17.77-39.844-39.844-39.844h-414.38z" opacity=".02"/>
  <path id="path133" d="m1744 30c-22.16 0-40 17.84-40 40v432c0 22.16 17.84 40 40 40h432c22.16 0 40-17.84 40-40v-432c0-22.16-17.84-40-40-40h-416z" opacity=".02"/>
  <path id="path135" d="m1749.1 30c-21.641 0-39.062 17.422-39.062 39.062v421.87c0 21.641 17.422 39.062 39.062 39.062h421.88c21.641 0 39.062-17.422 39.062-39.062v-421.87c0-21.641-17.422-39.062-39.062-39.062h-406.25z" fill="#ec407a"/>
 </g>
</svg>
