<svg id="svg72" width="76" height="66" version="1.1" xmlns="http://www.w3.org/2000/svg" xmlns:cc="http://creativecommons.org/ns#" xmlns:dc="http://purl.org/dc/elements/1.1/" xmlns:rdf="http://www.w3.org/1999/02/22-rdf-syntax-ns#">
 <metadata id="metadata78">
  <rdf:RDF>
   <cc:Work rdf:about="">
    <dc:format>image/svg+xml</dc:format>
    <dc:type rdf:resource="http://purl.org/dc/dcmitype/StillImage"/>
   </cc:Work>
  </rdf:RDF>
 </metadata>
 <g id="g40" stroke-width=".91667">
  <g id="horizontal-slider-handle" transform="matrix(.75 0 0 .75 -18.75 28)">
   <rect id="rect2" x="25" y="4" width="32" height="32" opacity="0"/>
   <circle id="circle4" cx="41" cy="20" r="8" fill="#FF578B"/>
  </g>
  <g id="horizontal-slider-hover" transform="matrix(.75 0 0 .75 6.25 27)">
   <rect id="rect7" x="25" y="4" width="32" height="32" opacity="0"/>
   <circle id="circle9" cx="41" cy="20" r="16" fill="#FF578B" opacity=".2"/>
   <circle id="circle11" cx="41" cy="20" r="8" fill="#FF578B"/>
  </g>
  <g id="horizontal-slider-focus" transform="matrix(.75 0 0 .75 31.25 28)">
   <rect id="rect14" x="25" y="4" width="32" height="32" opacity="0"/>
   <circle id="circle16" cx="41" cy="20" r="16" fill="#FF578B" opacity=".3"/>
   <circle id="circle18" cx="41" cy="20" r="8" fill="#FF578B"/>
  </g>
  <g id="vertical-slider-handle" transform="matrix(.75 0 0 .75 -18.75 -3)">
   <rect id="rect21" x="25" y="4" width="32" height="32" opacity="0"/>
   <circle id="circle23" cx="41" cy="20" r="8" fill="#FF578B"/>
  </g>
  <g id="vertical-slider-hover" transform="matrix(.75 0 0 .75 6.25 -3)">
   <rect id="rect26" x="25" y="4" width="32" height="32" opacity="0"/>
   <circle id="circle28" cx="41" cy="20" r="16" fill="#FF578B" opacity=".2"/>
   <circle id="circle30" cx="41" cy="20" r="8" fill="#FF578B"/>
  </g>
  <g id="vertical-slider-focus" transform="matrix(.75 0 0 .75 31.25 -3)">
   <rect id="rect33" x="25" y="4" width="32" height="32" opacity="0"/>
   <circle id="circle35" cx="41" cy="20" r="16" fill="#FF578B" opacity=".3"/>
   <circle id="circle37" cx="41" cy="20" r="8" fill="#FF578B"/>
  </g>
 </g>
 <path id="groove-top" class="ColorScheme-Text" d="m7-20v1h1v-1z" opacity=".3"/>
 <path id="groove-topleft" class="ColorScheme-Text" d="m6-20.02c-0.56073 0-1 0.44793-1 1.0197h1z" opacity=".3"/>
 <rect id="hint-tile-center" x="-1" y="-24" width="2" height="2" rx="0" ry="2" fill="#4e9a06"/>
 <path id="groove-topright" class="ColorScheme-Text" d="m10-19c0-0.51627-0.43927-0.92071-1-0.92071v0.92071z" opacity=".3"/>
 <path id="groove-bottom" class="ColorScheme-Text" d="m7-15v-1h1v1z" opacity=".3"/>
 <path id="groove-bottomleft" class="ColorScheme-Text" d="m6-15c-0.49777 0-0.8877-0.43927-0.8877-1h0.8877z" opacity=".3"/>
 <path id="groove-bottomright" class="ColorScheme-Text" d="m10-16c0 0.56073-0.43927 1-1 1v-1z" opacity=".3"/>
 <path id="groove-center" class="ColorScheme-Text" d="m7-18v1h1v-1z" opacity=".3"/>
 <path id="groove-left" class="ColorScheme-Text" d="m5-18v1h1v-1z" opacity=".3"/>
 <path id="groove-right" class="ColorScheme-Text" d="m9-18v1h1v-1z" opacity=".3"/>
 <path id="groove-highlight-top" class="ColorScheme-ButtonHover" d="m25-20v1h1v-1z" fill="#FF578B"/>
 <path id="groove-highlight-topleft" class="ColorScheme-ButtonHover" d="m24-20c-0.56073 0-1 0.43927-1 1h1z" fill="#FF578B"/>
 <path id="groove-highlight-topright" class="ColorScheme-ButtonHover" d="m28-19c0-0.56073-0.43927-1-1-1v1z" fill="#FF578B"/>
 <path id="groove-highlight-bottom" class="ColorScheme-ButtonHover" d="m25-15v-1h1v1z" fill="#FF578B"/>
 <path id="groove-highlight-bottomleft" class="ColorScheme-ButtonHover" d="m24-15c-0.56987 0-1.0163-0.43927-1.0163-1h1.0163z" fill="#FF578B"/>
 <path id="groove-highlight-bottomright" class="ColorScheme-ButtonHover" d="m28.04-16c0 0.56073-0.45667 1-1.0396 1v-1z" fill="#FF578B"/>
 <path id="groove-highlight-center" class="ColorScheme-ButtonHover" d="m25-18v1h1v-1z" fill="#FF578B"/>
 <path id="groove-highlight-left" class="ColorScheme-ButtonHover" d="m23-18v1h1v-1z" fill="#FF578B"/>
 <path id="groove-highlight-right" class="ColorScheme-ButtonHover" d="m27-18v1h1v-1z" fill="#FF578B"/>
 <circle id="hint-handle-size" cx="50.955" cy="-15.313" r="12" fill="#ff2a2a"/>
</svg>
